<svg xmlns="http://www.w3.org/2000/svg" viewBox="0 0 800 773.26"><g id="Calque_2" data-name="Calque 2"><g id="Calque_1-2" data-name="Calque 1"><g id="Logo"><path d="M94.4,385.58c0,149.87,117.1,273.24,267.5,288.93v97.88C158.85,753.81,0,588.19,0,386.63S158.85,19.45,361.9.87V96.65C211.5,112.34,94.4,235.71,94.4,385.58Z" fill="#087cee"/><path d="M800,386.63c0,205.25-164.73,373.23-373.1,386.63V674.51c150.4-15.69,267.5-139.06,267.5-288.93S577.3,112.34,426.9,96.65V0C635.27,13.4,800,181.38,800,386.63Z" fill="#087cee"/><polygon points="386.36 165.5 386.36 356.8 306.83 543.56 218.81 543.56 386.36 165.5" fill="#087cee"/><polygon points="413.64 165.5 413.64 356.8 493.17 543.56 581.19 543.56 413.64 165.5" fill="#087cee"/></g></g></g></svg>