<svg xmlns="http://www.w3.org/2000/svg" viewBox="0 0 396.3 110.83"><g id="Calque_2" data-name="Calque 2"><g id="Calque_1-2" data-name="Calque 1"><path d="M1.6,70.3a1.48,1.48,0,0,1-1.15-.5A1.72,1.72,0,0,1,0,68.6V10.9A1.72,1.72,0,0,1,.45,9.7,1.48,1.48,0,0,1,1.6,9.2H18.9A20.65,20.65,0,0,1,31.15,13a24.35,24.35,0,0,1,8.15,9.9,31.68,31.68,0,0,1,2.3,12.3,36,36,0,0,1-1,8.3,25.85,25.85,0,0,1-2.95,7.35,22.53,22.53,0,0,1-5.1,5.9,22.39,22.39,0,0,1-7.4,4c-1.2,0-1.9-.37-2.1-1.1a1.76,1.76,0,0,1,.1-1.3,1.51,1.51,0,0,1,1-.8,25.56,25.56,0,0,0,4-1.75A16.39,16.39,0,0,0,32.85,52a22.31,22.31,0,0,0,3.85-6.6A27.74,27.74,0,0,0,38.3,35.2a30.1,30.1,0,0,0-1.55-9.75A19.65,19.65,0,0,0,31.3,17.3a19,19,0,0,0-5.85-3.55A18.21,18.21,0,0,0,18.9,12.5H3.3V68.6a1.64,1.64,0,0,1-.5,1.2A1.64,1.64,0,0,1,1.6,70.3ZM10.3,4a1.72,1.72,0,0,1-1.2-.45A1.48,1.48,0,0,1,8.6,2.4a1.64,1.64,0,0,1,.5-1.2A1.64,1.64,0,0,1,10.3.7H21.1a25,25,0,0,1,8.3,1.4,29.77,29.77,0,0,1,7.4,3.8,30.14,30.14,0,0,1,6.1,5.75,29.16,29.16,0,0,1,4.3,7.25,43,43,0,0,1,3.2,17,47.66,47.66,0,0,1-1.8,13.25,31.63,31.63,0,0,1-5.45,10.9A26.45,26.45,0,0,1,34,67.45,28.57,28.57,0,0,1,21.1,70.2H10.4a1.72,1.72,0,0,1-1.2-.45,1.48,1.48,0,0,1-.5-1.15V18.5a1.61,1.61,0,0,1,.5-1.25,1.72,1.72,0,0,1,1.2-.45c1.07,0,1.6.57,1.6,1.7V66.9h9.1a26,26,0,0,0,14.15-4A22.82,22.82,0,0,0,44.4,51.6a41.35,41.35,0,0,0,2.7-15.7A44.82,44.82,0,0,0,45,22.05,26,26,0,0,0,37.3,10.5a24.5,24.5,0,0,0-8.55-5A25.28,25.28,0,0,0,21.1,4Zm8.9,57.8a2.51,2.51,0,0,1-1.6-.95,1.57,1.57,0,0,1-.1-1.45,1.2,1.2,0,0,1,.9-1,6.66,6.66,0,0,1,1.4-.15,1.86,1.86,0,0,1,1,.95,1.9,1.9,0,0,1,.1,1.35v.1A1.73,1.73,0,0,1,19.2,61.8Z" fill="#087cee"/><path d="M63,70.3c-1.33-.4-1.83-1.13-1.5-2.2L86.1,2A1.67,1.67,0,0,1,87.7.9h1.4A1.67,1.67,0,0,1,90.7,2l11.9,36.3a1.76,1.76,0,0,1-.1,1.3,1.51,1.51,0,0,1-1,.8.42.42,0,0,0-.25.05.42.42,0,0,1-.25,0,1.68,1.68,0,0,1-1.6-1.2L88.3,5.5,64.6,69.3A1.67,1.67,0,0,1,63,70.3Zm9.4.2a2.44,2.44,0,0,1-1.5-1,1.82,1.82,0,0,1-.2-1.45,1.74,1.74,0,0,1,1.7-1.3.78.78,0,0,1,.3,0,.78.78,0,0,0,.3.05,1.86,1.86,0,0,1,1,.95,1.9,1.9,0,0,1,.1,1.35v.1A1.73,1.73,0,0,1,72.4,70.5ZM74.2,65c-1.33-.4-1.83-1.13-1.5-2.2l13.9-41a1.8,1.8,0,0,1,1.6-1.1.78.78,0,0,1,.3.05.49.49,0,0,0,.2.05,1.5,1.5,0,0,1,1,.85,1.66,1.66,0,0,1,.1,1.25l-14,41A1.67,1.67,0,0,1,74.2,65Zm34.7-.1a1.4,1.4,0,0,1-1.5-1.1l-2.5-7.5H85a1.48,1.48,0,0,1-1.15-.5,1.72,1.72,0,0,1-.45-1.2A1.41,1.41,0,0,1,85,53h21.1a1.67,1.67,0,0,1,1.6,1.1l2.8,8.7a1.53,1.53,0,0,1-.1,1.2,1.51,1.51,0,0,1-1,.8Zm10.7,5.4a1.67,1.67,0,0,1-1.6-1l-8-21.8H87.8a1.61,1.61,0,0,1-1.25-.5,1.72,1.72,0,0,1-.45-1.2c0-1.07.57-1.6,1.7-1.6h23.4a1.61,1.61,0,0,1,1.5.9l8.4,23a1.47,1.47,0,0,1-1,2.1Zm-11-29.9a1.67,1.67,0,0,1-1.6-1.1L97,8.6a1.47,1.47,0,0,1,1-2.1,1.06,1.06,0,0,1,.5-.1,1.56,1.56,0,0,1,1.6,1.1l10.1,30.7a1.76,1.76,0,0,1-.1,1.3,1.51,1.51,0,0,1-1,.8Z" fill="#087cee"/><path d="M154.2,2.3V33.9h7.5a1.5,1.5,0,0,1,1.15.5,1.72,1.72,0,0,1,.45,1.2V61.1c0,1.13-.54,1.7-1.6,1.7a1.72,1.72,0,0,1-1.2-.45,1.58,1.58,0,0,1-.5-1.25V37.2h-7.4a1.72,1.72,0,0,1-1.2-.45,1.45,1.45,0,0,1-.5-1.15V3.9H132.7c-1.14,0-1.7-.53-1.7-1.6A1.5,1.5,0,0,1,132.7.6h19.9C153.66.6,154.2,1.17,154.2,2.3Zm-9.3,7.1a1.5,1.5,0,0,1,1.15.5,1.72,1.72,0,0,1,.45,1.2,1.42,1.42,0,0,1-1.6,1.6H132.7c-1.14,0-1.7-.53-1.7-1.6a1.72,1.72,0,0,1,.45-1.2,1.6,1.6,0,0,1,1.25-.5Zm9.4,59.4a1.42,1.42,0,0,1-1.6,1.6,1.72,1.72,0,0,1-1.2-.45,1.45,1.45,0,0,1-.5-1.15V44.7a1.58,1.58,0,0,1,.5-1.25,1.72,1.72,0,0,1,1.2-.45c1.06,0,1.6.57,1.6,1.7ZM161.7.6h13c1.06,0,1.6.57,1.6,1.7a1.42,1.42,0,0,1-1.6,1.6h-13a1.72,1.72,0,0,1-1.2-.45A1.45,1.45,0,0,1,160,2.3a1.58,1.58,0,0,1,.5-1.25A1.72,1.72,0,0,1,161.7.6ZM160,26.7V11.1a1.6,1.6,0,0,1,.5-1.2,1.64,1.64,0,0,1,1.2-.5h18.5a1.61,1.61,0,0,1,1.25.5,1.72,1.72,0,0,1,.45,1.2c0,1.07-.57,1.6-1.7,1.6H163.3v14a1.42,1.42,0,0,1-1.6,1.6,1.72,1.72,0,0,1-1.2-.45A1.45,1.45,0,0,1,160,26.7ZM180.8.5a1.51,1.51,0,0,1,1.1.9,2.06,2.06,0,0,1,.1,1.4h-.1a1.56,1.56,0,0,1-1.7,1.3,2.79,2.79,0,0,1-1.5-1,1.59,1.59,0,0,1-.2-1.35l.1-.1A1.54,1.54,0,0,1,180.3.4.79.79,0,0,1,180.8.5Z" fill="#087cee"/><path d="M197.2,67.6a1.73,1.73,0,0,1,1.7-1.2,1.38,1.38,0,0,1,.6.1,1.52,1.52,0,0,1,1,.85,1.9,1.9,0,0,1,.1,1.35v.1a1.54,1.54,0,0,1-1.7,1.2,2.38,2.38,0,0,1-1.5-1A1.78,1.78,0,0,1,197.2,67.6Zm.1-5V45.3a1.63,1.63,0,0,1,.3-1L231.8.8a1.6,1.6,0,0,1,1.3-.6,1.63,1.63,0,0,1,1,.3,1.39,1.39,0,0,1,.3,2.3L200.6,45.9V62.6a1.64,1.64,0,0,1-.5,1.2,1.67,1.67,0,0,1-1.2.5,1.48,1.48,0,0,1-1.15-.5A1.72,1.72,0,0,1,197.3,62.6Zm1.6-30.1a1.48,1.48,0,0,1-1.15-.5,1.72,1.72,0,0,1-.45-1.2V2.1a1.72,1.72,0,0,1,.45-1.2A1.48,1.48,0,0,1,198.9.4a1.67,1.67,0,0,1,1.2.5,1.64,1.64,0,0,1,.5,1.2V30.8a1.64,1.64,0,0,1-.5,1.2A1.67,1.67,0,0,1,198.9,32.5Zm10.5-11.9a1.64,1.64,0,0,1-.5,1.2,1.67,1.67,0,0,1-1.2.5,1.48,1.48,0,0,1-1.15-.5,1.72,1.72,0,0,1-.45-1.2V11a1.41,1.41,0,0,1,1.6-1.6,1.76,1.76,0,0,1,1.2.45,1.48,1.48,0,0,1,.5,1.15ZM207.7,70a1.41,1.41,0,0,1-1.6-1.6V49.9a1.37,1.37,0,0,1,.3-1l5.9-7.5a1.6,1.6,0,0,1,1.3-.6,1.45,1.45,0,0,1,1.3.6l20,26.2a1.53,1.53,0,0,1-.3,2.3,1.63,1.63,0,0,1-1,.3,1.6,1.6,0,0,1-1.3-.6L213.6,45.1l-4.2,5.3v18a1.48,1.48,0,0,1-.5,1.15A1.76,1.76,0,0,1,207.7,70ZM246.7.5a1.42,1.42,0,0,1,.2,2.3L221.8,34.6,247,67.4a1.47,1.47,0,0,1,.3,1.15,1.87,1.87,0,0,1-.7,1.15,1.39,1.39,0,0,1-1,.3,1.81,1.81,0,0,1-1.3-.6L218.4,35.6a1.59,1.59,0,0,1,0-2L244.4.8a1.5,1.5,0,0,1,1.2-.6A1.82,1.82,0,0,1,246.7.5Z" fill="#087cee"/><path d="M253.5,35a37.55,37.55,0,0,1,4.85-18.35A35.08,35.08,0,0,1,264.1,9.1a30.41,30.41,0,0,1,7.7-5.6,1.17,1.17,0,0,1,.8-.2,1.57,1.57,0,0,1,1.4.8,1.5,1.5,0,0,1,.15,1.35,1.73,1.73,0,0,1-.85,1,30.8,30.8,0,0,0-7,5.15,30,30,0,0,0-5.2,6.8,33.37,33.37,0,0,0-3.2,8A34.54,34.54,0,0,0,256.8,35,33.62,33.62,0,0,0,259,46.85,32.46,32.46,0,0,0,265,57a29.57,29.57,0,0,0,9.2,7A26.06,26.06,0,0,0,285.9,66.7a25.73,25.73,0,0,0,11.7-2.65,29.39,29.39,0,0,0,9.15-7.1,33.8,33.8,0,0,0,8.15-22,33.62,33.62,0,0,0-2-11.45,32.79,32.79,0,0,0-5.6-9.9,30,30,0,0,0-8.65-7.15A26.23,26.23,0,0,0,287.5,3.3v7.1a1.41,1.41,0,0,1-1.6,1.6,18.45,18.45,0,0,0-8.4,1.9,19.88,19.88,0,0,0-6.45,5.1,23.75,23.75,0,0,0-4.1,7.3,25.22,25.22,0,0,0-1.45,8.5A24.91,24.91,0,0,0,267,43.2a23.28,23.28,0,0,0,4.15,7.3,20.53,20.53,0,0,0,6.45,5.1,18.16,18.16,0,0,0,8.35,1.9,18.45,18.45,0,0,0,8.4-1.9,20.68,20.68,0,0,0,6.5-5.05A22.7,22.7,0,0,0,305,43.3a25.22,25.22,0,0,0,1.45-8.5A24.42,24.42,0,0,0,303,21.9a20.3,20.3,0,0,0-9.35-8.3,1.35,1.35,0,0,1-.85-.85,1.48,1.48,0,0,1,.05-1.25,1.38,1.38,0,0,1,1.5-1,1.33,1.33,0,0,1,.6.1,22.59,22.59,0,0,1,6.1,4,25.91,25.91,0,0,1,4.65,5.6,26.83,26.83,0,0,1,3,6.85,28.47,28.47,0,0,1,1.05,7.8A27.77,27.77,0,0,1,308,44.6a27.1,27.1,0,0,1-4.85,8.3,23.26,23.26,0,0,1-7.5,5.75,21.84,21.84,0,0,1-9.7,2.15,21,21,0,0,1-9.65-2.2,24.69,24.69,0,0,1-7.5-5.8,25.77,25.77,0,0,1-4.85-8.3,28.39,28.39,0,0,1-1.7-9.7,28.88,28.88,0,0,1,1.55-9.35,25.93,25.93,0,0,1,4.45-8.1,25.21,25.21,0,0,1,6.95-5.9A20.14,20.14,0,0,1,284.2,8.8V1.6c0-1.07.57-1.6,1.7-1.6a28.61,28.61,0,0,1,13,3,33.72,33.72,0,0,1,10.2,7.8,35.81,35.81,0,0,1,6.7,11.15A36.51,36.51,0,0,1,318.2,35a36.89,36.89,0,0,1-2.4,13.15,35.71,35.71,0,0,1-6.7,11.2,32.69,32.69,0,0,1-10.25,7.75,30.59,30.59,0,0,1-26,0,32.69,32.69,0,0,1-10.25-7.75,35.71,35.71,0,0,1-6.7-11.2A36.89,36.89,0,0,1,253.5,35ZM276.1,2.2A1.54,1.54,0,0,1,277.8,1a1.33,1.33,0,0,1,.6.1,1.47,1.47,0,0,1,1,.9,2.06,2.06,0,0,1,.1,1.4,1.74,1.74,0,0,1-1.7,1.3,2.9,2.9,0,0,1-1.6-1.05,1.38,1.38,0,0,1-.1-1.35Z" fill="#087cee"/><path d="M333,70.7a1.71,1.71,0,0,1-1.7-1.7V2.4A1.5,1.5,0,0,1,332.6.8a3.32,3.32,0,0,1,1,.15,1.37,1.37,0,0,1,.75.75L358,46.9l22.4-40a1.57,1.57,0,0,1,1.4-.8,1.19,1.19,0,0,1,.8.2,1.52,1.52,0,0,1,.8,1,1.64,1.64,0,0,1-.1,1.25L359.4,51.2a1.35,1.35,0,0,1-1.5.8,1.32,1.32,0,0,1-1.4-.8l-21.9-42V69a1.72,1.72,0,0,1-.45,1.2A1.48,1.48,0,0,1,333,70.7Zm8.8,0a1.48,1.48,0,0,1-1.15-.5,1.72,1.72,0,0,1-.45-1.2V37.7a1.41,1.41,0,0,1,1.6-1.6,1.74,1.74,0,0,1,1.2.45,1.48,1.48,0,0,1,.5,1.15V69a1.71,1.71,0,0,1-1.7,1.7ZM359,32.9a1.65,1.65,0,0,1-1.5-.8L344.4,8.5a1.38,1.38,0,0,1-.2-1.25,1.92,1.92,0,0,1,.8-1,3.37,3.37,0,0,1,.8-.2,1.42,1.42,0,0,1,1.4.9l13.2,23.5a1.44,1.44,0,0,1,.2,1.25,2,2,0,0,1-.8,1.05A3.49,3.49,0,0,1,359,32.9Zm35.7,37.8a1.64,1.64,0,0,1-1.2-.5A1.6,1.6,0,0,1,393,69V8.9L364,62a1.63,1.63,0,0,1-1.5.9,1.7,1.7,0,0,1-.8-.3,1.52,1.52,0,0,1-.8-1,1.41,1.41,0,0,1,.2-1.25L393.2,1.6A1.38,1.38,0,0,1,394,1,3.8,3.8,0,0,1,395.1.8a1.47,1.47,0,0,1,1.2,1.6V69a1.72,1.72,0,0,1-.45,1.2A1.5,1.5,0,0,1,394.7,70.7Zm-8.4-3.4a1.5,1.5,0,0,1,1,.85,2.16,2.16,0,0,1,.1,1.45,1.54,1.54,0,0,1-1.7,1.2,2.38,2.38,0,0,1-1.5-1,1.78,1.78,0,0,1-.2-1.45,1.73,1.73,0,0,1,1.7-1.2A1.38,1.38,0,0,1,386.3,67.3Zm-.6-2.2a1.41,1.41,0,0,1-1.6-1.6V37.7a1.41,1.41,0,0,1,1.6-1.6,1.76,1.76,0,0,1,1.2.45,1.48,1.48,0,0,1,.5,1.15V63.5a1.48,1.48,0,0,1-.5,1.15A1.76,1.76,0,0,1,385.7,65.1Z" fill="#087cee"/><path d="M1.61,89.5v21H0v-21Z" fill="#087cee"/><path d="M43.24,89.5v21H41.81L29.3,92.44V110.5H27.7v-21h1.39l12.54,18.06V89.5Z" fill="#087cee"/><path d="M70.93,91v8.4h9.79v1.5H70.93v9.6h-1.6v-21H81.08V91Z" fill="#087cee"/><path d="M104.63,100a10.94,10.94,0,1,1,10.94,10.83A10.82,10.82,0,0,1,104.63,100Zm20.27,0a9.34,9.34,0,1,0-9.33,9.3A9.24,9.24,0,0,0,124.9,100Z" fill="#087cee"/><path d="M159.68,101.89H153v8.61h-1.61v-21h8.36a6.19,6.19,0,0,1,1.61,12.18l5.27,8.82h-1.85Zm-6.69-1.5h6.75a4.7,4.7,0,0,0,0-9.39H153Z" fill="#087cee"/><path d="M210,110.5h-1.61V91.84l-7.84,12.9h-.28l-7.84-12.9V110.5h-1.61v-21h2l7.58,12.42,7.57-12.42h2Z" fill="#087cee"/><path d="M248.25,105.16H237.62l-2.06,5.34h-1.7l8.24-21h1.7l8.21,21h-1.7Zm-.58-1.5L243,91.45l-4.73,12.21Z" fill="#087cee"/><path d="M287.43,91h-6.67v19.5h-1.63V91h-6.67V89.5h15Z" fill="#087cee"/><path d="M313.19,89.5v21h-1.61v-21Z" fill="#087cee"/><path d="M338.06,100a10.7,10.7,0,0,1,11-10.83,10.37,10.37,0,0,1,9.09,5l-1.42.81a8.67,8.67,0,0,0-7.67-4.32,9.3,9.3,0,1,0,0,18.6,8.69,8.69,0,0,0,7.73-4.41l1.42.81a10.37,10.37,0,0,1-9.15,5.13A10.7,10.7,0,0,1,338.06,100Z" fill="#087cee"/><path d="M381.57,105.88l1.4-.81c.73,2.52,2.88,4.23,6.36,4.23s5.33-1.8,5.33-4.2-2.24-3.48-5.48-4.5c-3.55-1.14-6.73-2.13-6.73-5.79,0-3.45,2.82-5.64,6.43-5.64a7.12,7.12,0,0,1,6.81,4.41l-1.36.75a5.57,5.57,0,0,0-5.45-3.63c-2.94,0-4.79,1.71-4.79,4,0,2.52,2.15,3.3,5.18,4.29,3.76,1.23,7,2.4,7,6s-2.76,5.76-7,5.76C385.36,110.83,382.54,108.85,381.57,105.88Z" fill="#087cee"/></g></g></svg>