<?xml version="1.0"?>
<svg xmlns="http://www.w3.org/2000/svg" xmlns:xlink="http://www.w3.org/1999/xlink" xmlns:svgjs="http://svgjs.com/svgjs" version="1.1" width="512" height="512" x="0" y="0" viewBox="0 0 128 128" style="enable-background:new 0 0 512 512" xml:space="preserve" class=""><g><g xmlns="http://www.w3.org/2000/svg" id="Layer_2" data-name="Layer 2"><path d="M87.125,16.227l4.578.753a7.25,7.25,0,0,1,5.976,5.976l.754,4.578a1.75,1.75,0,0,0,3.453,0l.754-4.578a7.249,7.249,0,0,1,5.975-5.976l4.578-.753a1.75,1.75,0,0,0,0-3.454l-4.578-.753a7.249,7.249,0,0,1-5.975-5.976l-.754-4.578a1.75,1.75,0,0,0-3.453,0l-.754,4.578A7.25,7.25,0,0,1,91.7,12.02l-4.578.753a1.75,1.75,0,0,0,0,3.454Zm13.034-6.589a10.765,10.765,0,0,0,4.862,4.862,10.765,10.765,0,0,0-4.862,4.862A10.765,10.765,0,0,0,95.3,14.5,10.765,10.765,0,0,0,100.159,9.638Z" fill="#44558f" data-original="#000000" style="" class=""/><path d="M122.891,53.69a1.751,1.751,0,0,0-.806-1.188L90.8,33.222a17.74,17.74,0,0,0-9.312-2.639H65.75V28.07a2.691,2.691,0,0,1,1.739-2.509l3.584-1.344A6.18,6.18,0,0,0,68.9,12.25H62.456a10.083,10.083,0,0,0-9.243,6.05,1.75,1.75,0,1,0,3.207,1.4,6.586,6.586,0,0,1,6.036-3.95H68.9a2.68,2.68,0,0,1,.942,5.189l-3.584,1.344A6.209,6.209,0,0,0,62.25,28.07v2.513H46.517a17.74,17.74,0,0,0-9.312,2.639l-1.361.838a7.23,7.23,0,0,1-2.475-4.333l-.754-4.579a1.75,1.75,0,0,0-3.453,0l-.754,4.579A7.251,7.251,0,0,1,22.433,35.7l-4.579.754a1.75,1.75,0,0,0,0,3.453l4.579.754a7.207,7.207,0,0,1,1.787.56L5.915,52.5a1.75,1.75,0,0,0-.452,2.579L21.379,75.1a1.749,1.749,0,0,0,2.415.314l6.431-4.788V126.25a1.749,1.749,0,0,0,1.75,1.75h64.05a1.749,1.749,0,0,0,1.75-1.75V70.623l6.431,4.788a1.748,1.748,0,0,0,2.415-.314l15.916-20.016A1.745,1.745,0,0,0,122.891,53.69ZM74.179,34.083a9.933,9.933,0,0,1-9.762,8.167h-.834a9.933,9.933,0,0,1-9.762-8.167Zm-43.29-.764a10.75,10.75,0,0,0,4.862,4.864,10.842,10.842,0,0,0-4.863,4.863,10.748,10.748,0,0,0-4.862-4.863A10.757,10.757,0,0,0,30.889,33.319Zm74.048,38.273L97.07,65.734a1.75,1.75,0,0,0-2.795,1.4V124.5H33.725V67.138a1.75,1.75,0,0,0-2.8-1.4l-7.867,5.858L9.431,54.447,27.106,43.556a7.272,7.272,0,0,1,1.3,3.083l.754,4.578a1.75,1.75,0,0,0,3.453,0l.754-4.578a7.248,7.248,0,0,1,5.976-5.976l4.578-.754a1.75,1.75,0,0,0,0-3.453l-4.14-.682a14.239,14.239,0,0,1,6.734-1.691H50.3A13.425,13.425,0,0,0,63.583,45.75h.834A13.425,13.425,0,0,0,77.705,34.083h3.778A14.237,14.237,0,0,1,88.959,36.2h0l29.61,18.245Z" fill="#44558f" data-original="#000000" style="" class=""/></g></g></svg>
