<?xml version="1.0" encoding="utf-8"?>
<!-- Generator: Adobe Illustrator 24.3.0, SVG Export Plug-In . SVG Version: 6.00 Build 0)  -->
<svg version="1.1" id="illustration" xmlns="http://www.w3.org/2000/svg" xmlns:xlink="http://www.w3.org/1999/xlink" x="0px"
	 y="0px" viewBox="0 0 1024 768" style="enable-background:new 0 0 1024 768;" xml:space="preserve">
<style type="text/css">
	.st0{display:none;clip-path:url(#SVGID_2_);}
	.st1{display:inline;fill:none;stroke:#B8D8C7;stroke-width:1.8;stroke-linecap:round;stroke-linejoin:round;}
	.st2{display:inline;fill:#B8D8C7;}
	.st3{fill:#EAF9F3;}
	.st4{fill:#B0D7C0;}
	.st5{fill:#22272E;}
	.st6{fill:#F4C2C9;}
	.st7{fill:#6DAFA7;}
	.st8{fill:none;stroke:#22272E;stroke-width:1.8;stroke-linecap:round;stroke-linejoin:round;}
	.st9{fill:#FFE779;}
	.st10{fill:#B28D93;}
	.st11{fill:none;stroke:#896068;stroke-width:1.8;stroke-linecap:round;stroke-linejoin:round;}
	.st12{fill:none;stroke:#63737A;stroke-width:1.8;stroke-linecap:round;stroke-linejoin:round;}
	.st13{fill:#896068;}
	.st14{fill:#63737A;}
	.st15{fill:none;stroke:#FFFFFF;stroke-width:1.8;stroke-linecap:round;stroke-linejoin:round;}
	.st16{fill:#F8AB5D;}
	.st17{fill:none;stroke:#F8AB5D;stroke-width:1.8;stroke-linecap:round;stroke-linejoin:round;}
	.st18{fill:none;stroke:#22272E;stroke-width:4;stroke-linecap:round;stroke-linejoin:round;}
	.st19{fill:none;stroke:#E26E85;stroke-width:1.8;stroke-linecap:round;stroke-linejoin:round;}
	.st20{fill:#FFFFFF;}
	.st21{fill:#E26E85;}
	.st22{fill:#B8D8C7;}
	.st23{fill:#E86484;}
	.st24{fill:none;stroke:#6DAFA7;stroke-width:1.8;stroke-linecap:round;stroke-linejoin:round;}
	.st25{fill:#FFE7CA;}
	.st26{fill:none;stroke:#FFBF94;stroke-width:1.8;stroke-linecap:round;stroke-linejoin:round;}
	.st27{fill:#FFBF94;}
</style>
<g>
	<defs>
		<path id="SVGID_1_" d="M767.3,559.1l-520-14.9c-24.2-0.7-44.1-19.2-46.5-43.3l-25.1-248c-2.7-26.5,16.6-50.1,43.1-52.8
			c1.4-0.1,2.7-0.2,4.1-0.2l578.8-8c26.6-0.4,48.5,20.9,48.9,47.6c0,2.2-0.1,4.4-0.4,6.5l-33.7,271
			C813.4,541.6,792.1,559.9,767.3,559.1z"/>
	</defs>
	<clipPath id="SVGID_2_">
		<use xlink:href="#SVGID_1_"  style="display:none;overflow:visible;"/>
	</clipPath>
	<g class="st0">
		<path class="st1" d="M342.9,604.2H-72.6c-8.3,0-15-6.7-15-15V353.5c0-8.3,6.7-15,15-15h415.5c8.3,0,15,6.7,15,15v235.6
			C357.9,597.4,351.2,604.2,342.9,604.2z"/>
		<path class="st1" d="M892,588.3H472.9c-8.3,0-15-6.7-15-15V229c0-8.3,6.7-15,15-15l0,0H892c8.3,0,15,6.7,15,15l0,0v344.3
			C907,581.6,900.3,588.3,892,588.3z"/>
		<path class="st1" d="M228.1,338.5h-20.3c-2.2,0-4-1.6-4.3-3.8l-1.6-14.4c-0.3-2.4,1.5-4.5,3.8-4.8c0.2,0,0.3,0,0.5,0h23.5
			c2.4,0,4.3,2,4.3,4.4c0,0.1,0,0.3,0,0.4l-1.6,14.4C232.1,336.9,230.3,338.5,228.1,338.5z"/>
		<path class="st2" d="M215.5,315.6c0,0-8-0.8-9.6-11.6c0,0,7.2,2.1,9.5,7.2c0,0,1-11.4,6.4-12.5c0,0,2.4,8.5-1.4,12.7
			c0,0,2.9-4.8,10.3-4.7c-1.4,4.3-4.9,7.6-9.2,8.8"/>
		<path class="st1" d="M339.8,388.2h-90.2c-2.3,0-4.2-1.9-4.2-4.2v-27.4c0-2.3,1.9-4.2,4.2-4.2h90.2c2.3,0,4.2,1.9,4.2,4.2V384
			C344,386.3,342.1,388.2,339.8,388.2z"/>
		<path class="st2" d="M305,362.1h-20.8c-0.8,0-1.5-0.7-1.5-1.5l0,0c0-0.8,0.7-1.5,1.5-1.5H305c0.8,0,1.5,0.7,1.5,1.5l0,0
			C306.5,361.4,305.9,362.1,305,362.1C305,362.1,305,362.1,305,362.1z"/>
		<path class="st1" d="M339.8,434h-90.2c-2.3,0-4.2-1.9-4.2-4.2v-27.4c0-2.3,1.9-4.2,4.2-4.2h90.2c2.3,0,4.2,1.9,4.2,4.2v27.4
			C344,432.1,342.1,434,339.8,434z"/>
		<path class="st2" d="M305,407.9h-20.8c-0.8,0-1.5-0.7-1.5-1.5l0,0c0-0.8,0.7-1.5,1.5-1.5H305c0.8,0,1.5,0.7,1.5,1.5l0,0
			C306.5,407.2,305.9,407.9,305,407.9C305,407.9,305,407.9,305,407.9z"/>
		<path class="st1" d="M802.9,466.4h-90.2c-2.3,0-4.2-1.9-4.2-4.2v-27.4c0-2.3,1.9-4.2,4.2-4.2h90.2c2.3,0,4.2,1.9,4.2,4.2v27.4
			c0.1,2.3-1.7,4.1-4,4.2C803,466.4,803,466.4,802.9,466.4z"/>
		<path class="st2" d="M768.2,440.2h-20.8c-0.8,0-1.5-0.7-1.5-1.5l0,0c0-0.8,0.7-1.5,1.5-1.5h20.8c0.8,0,1.5,0.7,1.5,1.5l0,0
			C769.7,439.5,769.1,440.2,768.2,440.2C768.2,440.2,768.2,440.2,768.2,440.2z"/>
		<path class="st1" d="M687.1,466.4h-90.2c-2.3,0-4.2-1.9-4.2-4.2v-27.4c0-2.3,1.9-4.2,4.2-4.2h90.2c2.3,0,4.2,1.9,4.2,4.2v27.4
			c0.1,2.3-1.7,4.1-4,4.2C687.2,466.4,687.2,466.4,687.1,466.4z"/>
		<path class="st2" d="M652.4,440.2h-20.8c-0.8,0-1.5-0.7-1.5-1.5l0,0c0-0.8,0.7-1.5,1.5-1.5h20.8c0.8,0,1.5,0.7,1.5,1.5l0,0
			C653.9,439.5,653.3,440.2,652.4,440.2C652.4,440.2,652.4,440.2,652.4,440.2z"/>
		<path class="st1" d="M224.8,388.2h-90.2c-2.3,0-4.2-1.9-4.2-4.2v-27.4c0-2.3,1.9-4.2,4.2-4.2h90.2c2.3,0,4.2,1.9,4.2,4.2V384
			C229,386.3,227.1,388.2,224.8,388.2z"/>
		<path class="st2" d="M190,362.1h-20.8c-0.8,0-1.5-0.7-1.5-1.5l0,0c0-0.8,0.7-1.5,1.5-1.5H190c0.8,0,1.5,0.7,1.5,1.5l0,0
			C191.5,361.4,190.9,362.1,190,362.1C190,362.1,190,362.1,190,362.1z"/>
		<path class="st1" d="M224.8,434h-90.2c-2.3,0-4.2-1.9-4.2-4.2v-27.4c0-2.3,1.9-4.2,4.2-4.2h90.2c2.3,0,4.2,1.9,4.2,4.2v27.4
			C229,432.1,227.1,434,224.8,434z"/>
		<path class="st2" d="M190,407.9h-20.8c-0.8,0-1.5-0.7-1.5-1.5l0,0c0-0.8,0.7-1.5,1.5-1.5H190c0.8,0,1.5,0.7,1.5,1.5l0,0
			C191.5,407.2,190.9,407.9,190,407.9C190,407.9,190,407.9,190,407.9z"/>
		<path class="st1" d="M934.3,318.9h-455c-2.5,0-4.6-2.1-4.6-4.6v-79.7c0-2.5,2.1-4.6,4.6-4.6h455c2.5,0,4.6,2.1,4.6,4.6v79.7
			C938.9,316.8,936.8,318.9,934.3,318.9z"/>
		<path class="st1" d="M934.3,417.8h-455c-2.5,0-4.6-2.1-4.6-4.6v-79.7c0-2.5,2.1-4.6,4.6-4.6h455c2.5,0,4.6,2.1,4.6,4.6v79.7
			C938.9,415.7,936.8,417.8,934.3,417.8z"/>
		<rect x="505.3" y="268.6" class="st1" width="9.9" height="50.3"/>
		<rect x="515.1" y="282.3" class="st1" width="10.3" height="36.6"/>
		<rect x="803.7" y="367.4" class="st1" width="9.9" height="50.3"/>
		<rect x="813.5" y="381.1" class="st1" width="10.3" height="36.6"/>
		<rect x="783.5" y="367.4" class="st1" width="9.9" height="50.3"/>
		
			<rect x="746.2" y="386.8" transform="matrix(0.301 -0.9536 0.9536 0.301 165.5673 1009.3137)" class="st1" width="50.3" height="9.9"/>
		<rect x="793.4" y="381.1" class="st1" width="10.3" height="36.6"/>
		<rect x="670.1" y="268.6" class="st1" width="9.9" height="50.3"/>
		<rect x="680" y="282.3" class="st1" width="10.3" height="36.6"/>
		<rect x="572.4" y="268.6" class="st1" width="9.9" height="50.3"/>
		
			<rect x="535.1" y="287.9" transform="matrix(0.301 -0.9536 0.9536 0.301 112.322 738.9331)" class="st1" width="50.3" height="9.9"/>
		<rect x="582.2" y="282.3" class="st1" width="10.3" height="36.6"/>
		<path class="st2" d="M813.4,275.1l1.1-14.9c0.1-0.9-0.6-1.7-1.5-1.8c-0.1,0-0.1,0-0.2,0h-8.6c-0.9,0-1.7,0.8-1.7,1.7
			c0,0,0,0.1,0,0.1l1.1,14.9c0,0-9,5.8-8.9,10.6c0.1,3.7,2.3,21.4,3.3,29.2c0.3,2.2,2.1,3.8,4.3,3.8h12.4c2.2,0,4-1.6,4.3-3.8
			c1-7.8,3.2-25.5,3.3-29.2C822.4,280.9,813.4,275.1,813.4,275.1z"/>
		<path class="st2" d="M773.6,275.1l1.1-14.9c0.1-0.9-0.6-1.7-1.5-1.8c-0.1,0-0.1,0-0.2,0h-8.6c-0.9,0-1.7,0.8-1.7,1.7
			c0,0,0,0.1,0,0.1l1.1,14.9c0,0-9,5.8-8.9,10.6c0.1,3.7,2.3,21.4,3.3,29.2c0.3,2.2,2.1,3.8,4.3,3.8h12.4c2.2,0,4-1.6,4.3-3.8
			c1-7.8,3.2-25.5,3.3-29.2C782.6,280.9,773.6,275.1,773.6,275.1z"/>
		<line class="st1" x1="174.3" y1="512.2" x2="1130.1" y2="512.2"/>
	</g>
</g>
<g>
	<path class="st3" d="M856.3,615.9l-701.2-19.7c-32.6-0.9-59.5-25.5-62.7-57.4L58.5,210.3c-3.6-35.1,22.4-66.4,58.1-69.9
		c1.8-0.2,3.7-0.3,5.5-0.3l780.5-10.6c35.9-0.5,65.4,27.7,65.9,63c0,2.9-0.1,5.8-0.5,8.7l-45.4,359
		C918.4,592.8,889.7,616.9,856.3,615.9z"/>
	<path class="st4" d="M191.7,439.7L174.6,675c-0.1,1.9,1.4,3.6,3.3,3.7c0.1,0,0.1,0,0.2,0l0,0c1.9,0,3.4-1.4,3.5-3.2l20.6-235.8
		L191.7,439.7z"/>
	<path class="st4" d="M885,439.7L902.1,675c0.1,1.9-1.4,3.6-3.3,3.7c-0.1,0-0.1,0-0.2,0l0,0c-1.9,0-3.4-1.4-3.5-3.2l-20.6-235.8
		L885,439.7z"/>
	<path class="st5" d="M341.7,148.5c0,0,12,24,20.6,45.6c8.6,21.6,10.1,41.6,1.8,45.8c-11.7,6-24.8,6.4-39.9-21.7
		C309.1,190.1,320.4,126.7,341.7,148.5z"/>
	<path class="st6" d="M277.1,586.5c0.1,1.6-4.7,28.5-4.4,30.5c0.3,2-20.6,7.2-30.7-1.7c0,0,1.5-35.1,1.5-40.4
		S276.2,571.7,277.1,586.5z"/>
	<path class="st7" d="M273.1,612.2c0,0,2.3,9.9,5.7,16c3.4,6.1,22,23.2,20,29c-2,5.8-19.1,6.4-32.4,5.8c-13.2-0.5-19.1-5-24.4-14.3
		c-5.3-9.3-1.8-15.5-1.1-33.5c0,0,0.4-3,1.2-3.6c0,0,2.7,4.6,5.8,5s6.2-7,13.8-7.8c7.6-0.8,8.5,6.6,9.3,6.6S272.8,614.3,273.1,612.2
		z"/>
	<path class="st8" d="M285.3,640.7c0,0-9.4-4-27,2.5"/>
	<path class="st8" d="M282,633.4c0,0-9.4-4-27,2.5"/>
	<path class="st6" d="M344.5,581.9c0.1,1.6-4.7,28.5-4.4,30.5c0.3,2-20.6,7.2-30.7-1.7c0,0,1.5-35.1,1.5-40.4S343.7,567,344.5,581.9
		z"/>
	<path class="st7" d="M340.6,607.4c0,0,2.3,9.9,5.7,16c3.4,6.1,22,23.2,20,29s-19.1,6.4-32.4,5.8c-13.2-0.5-19.1-5-24.4-14.3
		c-5.3-9.3-1.8-15.5-1.1-33.5c0,0,0.4-3,1.2-3.6c0,0,2.7,4.6,5.8,5s6.2-7,13.8-7.8c7.6-0.8,8.5,6.6,9.3,6.6
		C339.3,610.7,340.3,609.7,340.6,607.4z"/>
	<path class="st8" d="M352.7,636c0,0-9.4-4-27,2.5"/>
	<path class="st8" d="M349.5,628.8c0,0-9.4-4-27,2.5"/>
	<path class="st9" d="M216.8,296c0,0-4,23.2,7.6,77.6c3.5,16.6,6.3,38.2,8.4,60.8c4.7,51.7,0.7,104.4-1.8,125.2
		c-3.5,29.8,12,35.5,28.7,36.8c16.7,1.3,22.9-6.2,23.7-14.6c0.8-8.3,10.8-119.6,14.6-144.8c3.8-25.2,4.2-59.6,3-64.6
		s13.3-4,7.3-66.2C302.3,243.7,221.7,279.4,216.8,296z"/>
	<path class="st9" d="M332.9,299c0,0,20.2,85,22.7,111.5c2.4,26.5-2.6,156.5-2.4,164.3c0.1,7.8-7.1,14.8-25.2,15.2
		s-25.4-11.4-25.2-17.8c0.4-21.2,0.7-105.6-0.7-118.6s-21-76.8-24.9-82.9c-3.9-6.1-12.5-51.9,4.4-59.9
		C298.5,303,325.2,291.1,332.9,299z"/>
	<path class="st7" d="M307.4,129.3c0,0-34.5-1.2-50.6-3.3c-16-2.1-46-2.3-57.8,21.5s24.9,35.4,24,52.2c-0.9,16.8-3.4,45.3-3.4,45.3
		s-3.4,31.9-7.1,44c-3.8,12.1,3.4,18.1,6.7,19.2c3.4,1.1,38.4,8.1,65,6.6s48.3-7.4,50.2-13.2s-1.2-22.9,0-40.8
		c1.2-17.9,4.7-49.1,4.7-61.1c0-11.9,5.9-42.1,0-54.6C333.2,132.6,318.9,129.7,307.4,129.3z"/>
	<path class="st5" d="M262.1,115.3c0,0-5.5,0.8-7.4,4.4c-1.7,3.3-2.6,6.9-2.6,10.6c0.1,4.2,6.6,15.9,25.4,18
		c18.7,2.1,25.5-6.9,26.3-10.3c0.8-3.4-0.5-12.7-1.9-14.3c-1.3-1.6-3.2-3.4-10-4.2C285.3,118.3,264.3,114.5,262.1,115.3z"/>
	<path class="st10" d="M289.2,195.8c3-3.1,5.8-6.4,8.4-9.9c2.8-4.2,6.6-8.9,9.7-10.6c3.1-1.7,9.6-2.9,11.3-3.8
		c1.8-0.9,3.8,2.4,0,5.4c-3.8,3-2.2,11.9-7.4,16.7S291.1,201.3,289.2,195.8z"/>
	<path class="st9" d="M328.5,117.4l68.1-4.4c1.8-0.1,3.3,1.2,3.4,2.9c0,0.2,0,0.4,0,0.6l-16.7,100.9c-0.4,2.2-2.2,4-4.4,4.2
		l-65.1,8.7c-1.8,0.2-3.4-1.1-3.6-2.9c0-0.2,0-0.4,0-0.6l13.8-105.2C323.9,119.4,325.9,117.5,328.5,117.4z"/>
	<path class="st7" d="M376.6,117.7l-25.8,1.3c-0.9,0-1.6-0.7-1.6-1.5c0-0.1,0-0.1,0-0.2l0.4-2.6c0.1-1,1-1.8,2-1.9l25.8-1.3
		c0.9,0,1.6,0.7,1.6,1.5c0,0.1,0,0.1,0,0.2l-0.4,2.6C378.5,116.8,377.6,117.6,376.6,117.7z"/>
	<path class="st10" d="M226.4,219.9c0,0,8.5-33.5,10.7-46.4c2.2-12.8-6.1-27.2-18.7-30.3c-14.8-3.6-19.4,4.1-19.4,4.1
		s-5.9,10.2-11.9,42.3c-5.9,32.1-9.3,61.9,11.9,69.2s64.6-16.4,78.5-26.6c13.9-10.2,19-14.4,21.7-15.1c2.7-0.7,13.3,2.1,19-4.1
		c5.7-6.2,10.5-11.1,11.1-11.1c0.5,0,14,2,16.3,0.3c2.6-2-1.2-4-3.9-4.4c-2.7-0.4-10.4-2.9-10.4-2.9s6.1-1.9,10.4-3.4
		c4.3-1.6,8.8-2.5,8.5-4.8c-0.3-2.3-3-2-5.7-2.1c-2.1,0-4.3,0.2-6.3,0.7c0,0,7.4-2,9.3-4.1s0.3-4-3.6-3.6c-2.5,0.3-5,0.7-7.4,1.3
		c0,0,7.6-0.7,7-4c-0.4-2.3-7.1-1.1-11.6-0.5c-5,0.6-10,1.6-15,2.8c-2.8,0.6-5.6,1.5-8.2,2.6c-4.7,2.3-16.6,13.4-18.5,15.6
		s-25.6,6-45,10.2s-30.7,7.7-36.7,13.1L226.4,219.9z"/>
	<path class="st11" d="M332,174.1c-5,0.6-10,1.6-15,2.8c-2.8,0.6-5.6,1.5-8.2,2.6"/>
	<path class="st5" d="M294.1,219.9c-3.4,2.4-8.5,6.4-16.6,12.2c-13.9,10.1-57.3,33.8-78.5,26.6c-21.2-7.2-17.7-37.1-11.9-69.2
		c5.8-32.1,11.9-42.3,11.9-42.3s4.6-7.7,19.4-4.1c12.5,3,20.9,17.4,18.7,30.3c-1.3,8.1-5.3,24.5-8,35.5c4.7-1.3,10.1-2.5,16.3-3.8
		c13.8-2.9,29.8-5.7,38.6-7.8c-1.1,4.8-0.6,9.8,1.5,14.3C288.7,218.6,294.1,219.9,294.1,219.9z"/>
	<path class="st12" d="M185.8,246.2c0,0-0.3-7.2,8.6-6.2c8.9,0.9,32,9.1,25.4,18.8"/>
	<path class="st12" d="M273.3,199.8c-1.1,5.2-0.6,10.6,1.6,15.5c2.3,4.7,5.8,8.6,10.2,11.4"/>
	<path class="st10" d="M261.1,94.5c0,0-0.4,17-1.5,27.6c-1.1,10.6,19,15,28.7,13.1c9.7-1.9,11.2-4.8,11.2-4.8s-0.8-14.3,0-19.5
		S261.2,88.9,261.1,94.5z"/>
	<path class="st13" d="M299.2,126.5c-0.1-2.1-0.1-4.9-0.1-7.7c-8.2,0.4-15.5-7-21.4-13.1C276,118.5,287.2,126.7,299.2,126.5z"/>
	<path class="st5" d="M315.1,72c0,0,6.7-3.4,8.8-14.3s-0.4-27-8-28.9c-7.6-1.9-2.3,20.9-7.4,25.2S315.1,66,315.1,72z"/>
	<path class="st10" d="M314.9,53.3c1.5,7.4,2,15,1.5,22.5c-0.8,13.5,1.9,36.3-13.1,42.9c-15,6.6-34.8-0.3-42.9-22
		c-8.1-21.7-8.2-43.3,4.2-52.6S310.4,36.1,314.9,53.3z"/>
	<path class="st5" d="M262,79.4c0,0,4.6-1.5,4.7-9.5c0.1-8.1,4.4-15,13.3-12.6c8.9,2.4,21.3,9.1,28.6,9c8.6-0.3,11.3-9.4,12-20.7
		s-3.1-18.3-7.6-17.1c-4.4,1.2-8.2,4.9-13.8-2c-7.6-9.3-14.3-9-19.7-4.6c-9.4,7.8-7.3,11.9-15.9,8.6c-5-2-8.5-1.5-10.9,7.7
		s-1.5,11.7-7.3,10.9c-5.8-0.8-2.2,29.4,7.3,36.2C253,85.2,260.2,78.7,262,79.4z"/>
	<path class="st5" d="M308.4,81.6c0.5,1.5,0.8,2.9,1.2,4.2c0.4,1.3,0.8,2.8,1.2,3.8c0.4,0.8,0.6,1.6,0.7,2.5c0.1,1-0.2,1.9-0.8,2.6
		c-1.1,1.3-2.9,1.9-4.6,1.7c1.2-0.6,2.2-1.5,3-2.6c0.3-1.1,0.1-2.3-0.5-3.2c-0.6-1.5-1-3-0.9-4.6C307.7,84.6,308,83.1,308.4,81.6z"
		/>
	<path class="st5" d="M295.3,70.1c0.9,0.1,1.7-0.5,1.8-1.3c0-0.3,0-0.5-0.1-0.8c-0.4-1.2-0.7-2.3-2-2.5c-4.4-0.7-8.8,0.2-12.5,2.5
		c-3.6,2.6-0.1,3.2,4.4,2.3C289.7,69.8,292.5,69.8,295.3,70.1z"/>
	<ellipse class="st8" cx="289.1" cy="83.1" rx="13.3" ry="13.6"/>
	<ellipse class="st8" cx="317" cy="83.1" rx="8.6" ry="12.5"/>
	<path class="st8" d="M308.7,80.3c0,0-1.8-2.4-6.5,0"/>
	<line class="st8" x1="276.3" y1="79.3" x2="260.2" y2="78.1"/>
	<path class="st8" d="M297.2,106c-3.9-0.5-7.3-2.8-9.2-6.2"/>
	<path class="st5" d="M291.1,88.1L291.1,88.1c1.2,0.1,2.3-0.8,2.4-2.1c0,0,0,0,0-0.1l0.1-1.3c0.1-1.2-0.8-2.3-2.1-2.4c0,0,0,0-0.1,0
		l0,0c-1.2-0.1-2.3,0.8-2.4,2.1c0,0,0,0,0,0.1l-0.1,1.3c-0.1,1.2,0.7,2.2,2,2.4C291,88.1,291.1,88.1,291.1,88.1z"/>
	<path class="st5" d="M311.1,88.5L311.1,88.5c1.2,0.1,2.3-0.8,2.4-2.1c0,0,0,0,0-0.1l0.1-1.3c0.1-1.2-0.8-2.3-2.1-2.4c0,0,0,0-0.1,0
		l0,0c-1.2-0.1-2.3,0.8-2.4,2.1c0,0,0,0,0,0.1l-0.1,1.3C308.9,87.4,309.9,88.4,311.1,88.5z"/>
	<path class="st10" d="M261.5,79.8c0,0-3.9-6.6-9.2-4.9c-5.3,1.7-5.1,9.7-2.6,14.4c2.9,5.1,8.7,7.9,14.6,7.3"/>
	<path class="st5" d="M252.2,84.6c-0.3-0.7-0.4-1.4-0.3-2.1c0.1-0.4,0.3-0.9,0.5-1.2c0.4-0.4,0.9-0.6,1.5-0.7c0.9,0,1.8,0.4,2.4,1.1
		c0.5,0.6,1,1.2,1.3,1.9c0.5,1.1,1,2.3,1.3,3.4c0.2,0.4,0.4,0.8,0.7,1.2c0.3,0.3,0.9,0.3,1.6,0.3c-0.4,0.7-1.2,1-2,0.9
		c-0.8-0.2-1.5-0.7-2-1.3c-0.7-1.1-1.3-2.2-1.9-3.3c-0.5-1.1-1.1-1.9-1.6-2c-0.1,0-0.3-0.1-0.4,0s-0.3,0.1-0.4,0.4
		C252.8,83.4,252.4,83.9,252.2,84.6z"/>
	<path class="st11" d="M332,194.9c-1.5-0.4-2.9-0.6-4.4-0.8c-1.1-0.2-2.2-0.2-3.2,0"/>
	<path class="st11" d="M338.2,185c0,0-13.8,2.9-15,3.8"/>
	<path class="st11" d="M336.6,178.6c0,0-9.4,2-10,2.1c-1.8,0.5-5,1.5-5,1.5"/>
	<path class="st8" d="M229.2,350.4c0,0,15.8-6.6,15.8-29.1"/>
	<path class="st4" d="M77.9,534.8l-7.8,159.5c-0.1,1.7,1.2,3.2,2.9,3.3c0.1,0,0.2,0,0.3,0l0,0c1.7,0,3.1-1.3,3.2-2.9l13.6-160H77.9
		L77.9,534.8z"/>
	<path class="st4" d="M154.9,534.8l7.8,159.5c0.1,1.7-1.2,3.2-2.9,3.3c-0.1,0-0.2,0-0.3,0l0,0c-1.7,0-3.1-1.3-3.2-2.9l-13.6-160
		h12.3L154.9,534.8z"/>
	<path class="st4" d="M130.5,503.4l-0.1,159.6c0,1.7-1.4,3.2-3.2,3.2c-0.1,0-0.1,0-0.2,0l0,0c-1.6-0.2-2.9-1.4-3.1-3l-5.7-160.4
		L130.5,503.4z"/>
	<path class="st5" d="M160.3,519.3c-15.2-1.9-30.5-2.9-45.8-2.8c-15.3-0.1-30.6,0.8-45.8,2.8H43.3v9c0,6.5,31.8,11.8,71.2,11.8
		s71.2-5.3,71.2-11.8v-9H160.3z"/>
	<ellipse class="st14" cx="114.5" cy="519.3" rx="71.2" ry="11.8"/>
	<path class="st5" d="M165.3,643.9c0,0-1.8,12.7-4.2,16.6c-2.4,3.8-6.5,13.4-6.3,15.6c0.4,4.1,13.3,14.6,20.9,20.9
		c7.6,6.4,13.8,6.6,27.8,7.7c14,1.1,19.7-1.1,19.7-5.3c0-4.2-2.8-6.2-9-13.2c-6.2-7-15.9-17-19.1-22.7c-3.2-5.7,3.2-14.3,6.2-19.6
		S171.5,628.9,165.3,643.9z"/>
	<path class="st6" d="M201.2,643.9c-2.8,5.3-9.3,13.9-6.2,19.6c0.3,0.5,0.7,1.1,0.9,1.6c-2.1-2.9-5.6-4.5-9.2-4.5
		c-6.5,0-10,7.4-15,3.8c-3.2-2.4-7.4-5-9.8-6.5c1.4-4.6,2.5-9.4,3.1-14.2C171.5,628.9,204.1,638.6,201.2,643.9z"/>
	<path class="st7" d="M160.5,427.5c0,0,5.7,13.5,8.5,17.4c2.8,3.8,72.3,10.5,79.7,38.2c7.4,27.7-36.5,144.5-41.3,155.5
		s-5.4,20.7-21.3,19.1c-15.9-1.6-28.7-11.7-25.6-22.7s15.2-40.3,20.2-75.4c5-35.1,23.1-42.5-9.3-53.3c-32.4-10.7-58.1-7.3-49.2-37
		S154.3,424.3,160.5,427.5z"/>
	<path class="st5" d="M210.6,663.2c0,0,5.7,19.9,5.7,22c0,2.1-3.6,19.2-2.8,24.2c0.8,5,7.8,7.8,17.1,16.2c10,9.1,18.1,8.6,30.3,7.7
		c10.5-0.8,24.5-5.8,26-9.9s-0.1-7-8.5-11.4c-7.4-4-26-24.2-27-26.5s-6.6-31.8-6.9-34.6C244.3,648.1,207.3,655.6,210.6,663.2z"/>
	<path class="st6" d="M250.5,682.7c-2.8-3.4-6.9-6.4-12.3-3.2c-5.7,3.3-6.2,10.5-9.2,10.9c-3,0.4-3.2-3.7-7.1-4.9
		c-2.4-0.7-4.6-2-6.3-3.7c-1.5-6.2-5-18.7-5-18.7c-3.4-7.6,33.7-15.2,33.8-12.3C244.7,653.3,248.8,674.7,250.5,682.7z"/>
	<path class="st15" d="M259.6,697.1c0,0-7-2.6-20.8,4.1"/>
	<path class="st15" d="M269.3,705.6c0,0-10.4-2.6-24.1,4.1"/>
	<path class="st7" d="M65.5,425.4c0,0-6.5,16.7-10.4,27.2s-8.9,31.9,2.3,49.3c11.2,17.4,32.8,20.4,67.4,24.6
		c34.3,4.1,41.7,6.8,41.7,6.8c5.5,23,12.3,45.7,20.5,68c12.7,33.6,17.4,53.3,17.9,58c0.5,4.8,3.1,9.4,11.6,11.4
		c8.5,2,30.6-2.8,32.1-12.5c1.5-9.7-8.1-39.2-14.3-78.4c-6.2-39.2-9-72.1-20.8-87.3s-58-16.8-58-21.2S88,414.8,65.5,425.4z"/>
	<path class="st8" d="M234.2,579.7c-6.2-39.2-9-72.1-20.8-87.3c-11.7-15.2-55.7-19.5-58-21.2c-7.7-4.7-16.7-7.2-25.8-7.2"/>
	<path class="st8" d="M155.5,471.2c0,0,1.1-6.9,0-10.1"/>
	<path class="st8" d="M57.4,476.4c0,0,22.5-0.4,27.5-24.5"/>
	<path class="st8" d="M166.4,533.2c0.1-4.1,1.9-8,5.1-10.7"/>
	<path class="st15" d="M212.8,684.4c0,0-2.8-7.6-25.5-1.5"/>
	<path class="st15" d="M201.5,672.5c0,0-2.2-5.6-20.2,2"/>
	<path class="st16" d="M750.4,187l-181.5-7.3c-3.9-0.1-6.6-3.7-6.1-8.1l14.8-107.2c0.6-4.2,4-7.4,8.2-7.9l181.5-7.3
		c4-0.4,7.6,2.5,8,6.4c0.1,0.6,0,1.2,0,1.8l-14.8,120.9C760,183.4,755.5,187.1,750.4,187z"/>
	<path class="st9" d="M747.3,184.7l-181.5-7.3c-3.9-0.1-6.6-3.7-6.1-8.1l14.8-107.2c0.6-4.2,4-7.4,8.2-7.9l181.5-7.3
		c4-0.4,7.6,2.5,8,6.4c0.1,0.6,0,1.2,0,1.8l-14.8,120.9C756.8,181.1,752.4,184.8,747.3,184.7z"/>
	<line class="st17" x1="603.2" y1="115.6" x2="651.2" y2="115.6"/>
	<path class="st17" d="M646,154.4l-25.9-0.7c-3.6-0.1-6.5-3.1-6.3-6.7c0-0.3,0.1-0.6,0.1-1l8.2-60.8c0.6-4.1,4-7.3,8.2-7.7l25.9-0.7
		"/>
	<path class="st7" d="M684.6,83.9l-30.1,0.5c-1.5,0-2.7-1.2-2.7-2.6c0-0.1,0-0.3,0-0.4l1.2-8.9c0.2-1.8,1.7-3.1,3.5-3.2l30.1-0.9
		c1.5,0,2.8,1.1,2.9,2.6c0,0.1,0,0.3,0,0.4l-1.2,9C688.1,82.3,686.5,83.8,684.6,83.9z"/>
	<path class="st7" d="M736.4,123.5l-32.2-0.1c-1.6,0-2.9-1.2-2.9-2.8c0-0.2,0-0.4,0-0.5l1.2-9.3c0.2-1.8,1.8-3.2,3.6-3.3l32.2-0.1
		c1.6-0.1,2.9,1.1,3,2.7c0,0.2,0,0.4,0,0.6l-1.2,9.4C740,122,738.4,123.5,736.4,123.5z"/>
	<path class="st7" d="M674.5,162.8l-30.1-0.8c-1.5,0-2.8-1.3-2.7-2.8c0-0.1,0-0.3,0-0.4l1.2-9c0.2-1.7,1.7-3.1,3.5-3l30.1,0.5
		c1.6,0,2.9,1.3,2.9,2.9c0,0.1,0,0.3,0,0.4l-1.2,9.1C677.8,161.5,676.3,162.8,674.5,162.8z"/>
	<line class="st17" x1="683.8" y1="115.4" x2="702" y2="115.4"/>
	<path class="st6" d="M679.6,123.2l-30.1-0.1c-1.5,0-2.8-1.3-2.7-2.8c0-0.1,0-0.3,0-0.4l1.2-8.9c0.2-1.8,1.7-3.1,3.5-3.2l30.1-0.1
		c1.6,0,2.9,1.3,2.9,2.8c0,0.1,0,0.2,0,0.3l-1.2,9.1C683,121.8,681.4,123.2,679.6,123.2z"/>
	<path class="st7" d="M603.2,115.6c0.7-4.9-2.6-8.7-7.1-8.7s-8.8,4-9.4,8.7c-0.7,4.8,2.4,8.7,7,8.7
		C598.5,124,602.5,120.4,603.2,115.6z"/>
	<path class="st5" d="M732.6,509.3v9c0,5.8-29.8,10.6-66.7,10.6s-66.7-4.8-66.7-10.6v-9h31.4c23.5-2.1,47.2-2.1,70.7,0H732.6z"/>
	<ellipse class="st14" cx="665.9" cy="509.3" rx="66.7" ry="10.6"/>
	<path class="st5" d="M665.9,626.9L665.9,626.9c-1.7,0-3.1-1.3-3.1-2.9c0,0,0-0.1,0-0.1V520h6.3v103.9
		C669.1,625.6,667.6,626.9,665.9,626.9C665.9,626.9,665.9,626.9,665.9,626.9z"/>
	<path class="st18" d="M665.9,623.6c0,0-36.7,2.6-48.3,26.6"/>
	<path class="st18" d="M714.3,650.2c-11.7-24-48.3-26.6-48.3-26.6s-6.1,4.6-8.6,32.1"/>
	<ellipse class="st7" cx="657.2" cy="658.6" rx="9.8" ry="9.7"/>
	<ellipse class="st7" cx="714.2" cy="652.2" rx="9.8" ry="9.7"/>
	<ellipse class="st8" cx="617.6" cy="652.1" rx="9.8" ry="9.7"/>
	<path class="st5" d="M702.3,411.6c6.5,15.2,17.9,39.7,17.8,67.3c0,33.4-41.1,47-45.3,52.3c-4.2,5.3-89.8,11.1-98.6-5.7
		c-8.8-16.8-8.2-34.6,15.2-77.1c15.6-28.5,13.6-36.4,13.8-36.8c0,0,2.2,2.3,3.1-6.6C609.2,396.1,698.4,402.6,702.3,411.6z"/>
	<path class="st6" d="M596.5,491c-8.4,1.3-22.4,5.7-23.9,27.6c-1.5,21.9,16.3,106.6,16.6,121.6s-1.2,15.6-11.6,24.8
		c-10.4,9.1-31,19.1-29.3,26.1c1.8,7,25.4,13,40.9,10.2s19-20.1,22-21.6c3-1.5,4.9-6.9,5.3-10.3s11.3-125.1,12.4-142.9
		C630.4,504.2,621.1,487.1,596.5,491z"/>
	<path class="st5" d="M617.6,659c-0.5,5.8-0.9,9.5-0.9,10.2c-0.4,3.6-2.3,8.9-5.3,10.3c-3,1.5-6.3,18.8-22,21.6
		c-15.6,2.8-39.2-3.2-40.9-10.2c-1.3-5.4,10.9-12.7,21.3-20c-0.3,0.3-3.2,3.2,0,3.8c3.2,0.7,9.4-1.9,21,4.5
		c11.6,6.4,15-3.6,17.3-10.3C610.2,663.2,614.2,665.1,617.6,659z"/>
	<path class="st6" d="M637.3,495c-10.1,6.6-14.2,14.7-16,45.2c-2.6,41.9-7.1,107.7-9.3,114.7c-2.2,7-4.9,10.2-7.4,17.2
		c-2.6,7-24.3,27.3-22.9,35s13.8,15.4,21.6,17.9s17.1,3.6,22.8,0c5.7-3.6,8.5-26,10-31.3s3.1-9.3,4.4-18.7s11.2-51.8,15.4-64
		c4.2-12.2,22.9-71.4,23.5-94.6C679.5,493.2,652.1,485.4,637.3,495z"/>
	<path class="st19" d="M637.3,495c-10.1,6.6-14.2,14.7-16,45.2c-2.6,41.9-7.1,107.7-9.3,114.7c-2.2,7-4.9,10.2-7.4,17.2"/>
	<path class="st5" d="M641.9,666.6c-0.7,2.8-1.2,5.5-1.5,8.3c-1.2,9.3-3,13.2-4.4,18.7c-1.5,5.4-4.2,27.8-9.8,31.3
		c-5.7,3.4-15,2.5-22.8,0s-20.2-10.2-21.6-17.8c-0.9-5.6,10.1-17.6,17.3-26.6c-0.4,0.5-5.5,8.1,3.6,14.7c8,5.8,22.8,9.4,26.6,0.7
		c3.8-8.7,5.8-17,7.6-19.6C639,673.4,640.8,670.1,641.9,666.6z"/>
	
		<ellipse transform="matrix(0.3267 -0.9451 0.9451 0.3267 -249.7812 1044.192)" class="st20" cx="608" cy="697.4" rx="5.4" ry="7.4"/>
	<path class="st20" d="M585,677.4c-0.4,2.8-3.9,4.5-7.7,4c-3.8-0.5-6.6-3.3-6.2-6.1s3.9-4.5,7.7-4
		C582.5,671.8,585.4,674.6,585,677.4z"/>
	<path class="st7" d="M608.4,300.9c0,0-18.3,0.3-30.7,27.2c-12.4,26.9-32.1,64.8-29.3,80.8c2.8,16,40.5,0,58.3-30.1
		C624.5,348.7,622.7,301.7,608.4,300.9z"/>
	<path class="st5" d="M622.6,247.4c0,0-9.3-0.5-12.3-12.3c-3-11.8,9.3-26.5,20.6-30.1s14.2,3.3,21.6,4.1s27.2-1.3,35.2,16
		c8,17.4-5.3,33.8,4.9,46.8s18.6,37.1-11.2,47.4s-64.1,2.3-74.7-16.4c-10.7-18.7,9.8-29.7,12.9-39.3
		C623,254,624.5,251.6,622.6,247.4z"/>
	<path class="st9" d="M652.8,294c0,0-27.5-0.3-42.5,5.3c-4.4,1.6-8.2,4.4-9.3,18.1c-0.9,12.5-1.6,12.3-5.1,18.4
		c-5.5,9.8-7.8,21.1,2.8,39.3c6.9,11.9,4.7,34.3,3.6,45.6s0.3,16.3,22.5,21.9c22.2,5.6,70,0,75.4-5.3c5.4-5.3,7.8-57.8,6.7-68
		s18.9-37.4,17.4-48.1S710,295.8,652.8,294z"/>
	<path class="st20" d="M637.7,291.7c0,0-12.4,0.5-16.5,4.6c-2.8,2.9-0.5,4.8,2.8,7.3c2.3,1.7-5.8,6.2-1.6,11.4
		c3.1,3.8,10.1-0.9,12.8,2.6c3.1,4.2,3.6,5.8,8.4,6c5.9,0.1,6.5-6.1,10.9-5.4c5.4,0.8,6.6,2.6,10.5,2.3c6.1-0.7,6.2-6.6,5.4-10.2
		c-0.8-3.6,1.3-3.7,6.1-5c4.7-1.3,5.7-10.3-11.7-12.8C647.4,289.9,637.7,291.7,637.7,291.7z"/>
	<path class="st6" d="M668.4,267.8c-1.8,9.1-2.6,18.4-2.6,27.7c-3.2,8.4-11.8,13.7-20.9,13c-15.1-0.8-11.6-12.7-11.6-12.7
		s3.6-13.2,3.8-16.7C637.3,275.6,664.6,264.2,668.4,267.8z"/>
	<path class="st21" d="M656.4,282.9c-6.5,4.2-14,6.8-21.2,6.2l-1.8,6.6c0,0-0.1,0.7-0.3,1.7C643.7,297.2,653.2,292.5,656.4,282.9z"
		/>
	<path class="st6" d="M620.8,234.1c0.2,7.4-0.3,14.7-1.5,22c-1.9,11.4,0.1,29.4,12.7,33.6c17.4,5.8,35.5-5.8,39.9-22.8
		c4.4-17,6.7-37.8-15.4-44S622,225.8,620.8,234.1z"/>
	<path class="st5" d="M620.1,238.9c0,0-0.9-4.1,3-4.9c3.9-1,7.6-2.3,11.2-4.1c2.6-1.2,5.8-0.8,8.4,4.8c5.7,11.9,12.8,29.8,27.6,24.8
		c0,0,5.7,1.2,7.3-8.1c1.6-9.3,0.9-21.7-15.5-29.3c-16.5-7.6-35.3-2.4-38.8,1.5C617.9,229.5,620.1,238.9,620.1,238.9z"/>
	<path class="st6" d="M664,261.3c0,0,6.1-8.2,11.7-3.4c5.7,4.8-2.2,16.8-10,16.4"/>
	<path class="st9" d="M672.7,275.2c0-1.9-1.6-5.3-3.5-5.3s-3.5,3.4-3.5,5.3c0,1.9,1.6,3.4,3.5,3.4
		C671.2,278.6,672.7,277.1,672.7,275.2C672.7,275.2,672.7,275.2,672.7,275.2z"/>
	<path class="st5" d="M673.7,263.4c-0.5-0.3-0.9-0.7-1.3-0.8c-0.3-0.2-0.7-0.2-0.9,0c-0.1,0-0.1,0.1-0.3,0.3s-0.3,0.3-0.3,0.4
		c-0.1,0.3-0.2,0.6-0.3,0.9c-0.1,0.8,0,1.9-0.3,3c-0.1,0.7-0.6,1.3-1.2,1.7c-0.6,0.3-1.3,0.3-1.9,0c0.5-0.3,0.9-0.5,1.1-0.9
		c0.1-0.3,0.2-0.7,0.1-1.1c-0.1-1-0.2-2-0.1-3c0-0.7,0.3-1.4,0.8-2l0.8-0.8c0.4-0.2,0.8-0.3,1.2-0.4c0.8,0,1.5,0.4,1.9,1.1
		C673.5,262.2,673.7,262.8,673.7,263.4z"/>
	<path class="st5" d="M625.4,255.3c0.5,1.2,0.6,2.6,0.3,3.8c-0.2,1.3-0.9,2.6-1.8,3.6c-0.3,0.4-0.4,0.4-0.4,0.8
		c0,0.4,0.2,0.8,0.4,1.2c0.3,0.5,0.6,0.9,0.9,1.3c0.4,0.4,0.8,0.9,1.3,1.1c-0.7,0.2-1.4,0.2-2-0.1c-0.6-0.3-1.2-0.6-1.8-1.1
		c-0.6-0.6-1-1.3-1.1-2.1v-0.7c0-0.2,0.1-0.4,0.1-0.7c0.1-0.3,0.1-0.4,0.3-0.7s0.3-0.4,0.4-0.5C623.6,259.5,624.7,257.5,625.4,255.3
		z"/>
	<path class="st8" d="M631.5,274.1c3.1,0.3,6.2-0.5,8.6-2.4"/>
	<path class="st5" d="M637.3,245.2c-0.2-0.9,0-1.8,0.5-2.5c1.1-1.3,4.6-1.5,7.3,0.3s3.8,4.1,3,4.4c-1.2,0.4-2.4-1.2-5.3-1.5
		C640,245.6,637.8,246.7,637.3,245.2z"/>
	<path class="st5" d="M623.4,244.8c0.6,0.2,1.1-0.2,1.3-0.7c0-0.1,0-0.2,0-0.2c0.2-0.9,0.1-1.8-0.3-2.6c-0.8-1.2-3,0.1-3.6,1.1
		c-0.7,0.9-0.4,2.5,0,2.5C621.7,244.7,622.5,244.7,623.4,244.8z"/>
	<path class="st5" d="M640,257.7L640,257.7c1,0.1,1.9-0.6,2-1.6c0,0,0-0.1,0-0.1l0.1-1.1c0.1-1-0.6-1.9-1.7-2c0,0-0.1,0-0.1,0l0,0
		c-1-0.1-1.9,0.6-2,1.6c0,0,0,0.1,0,0.1l-0.1,1.1C638.1,256.7,638.9,257.6,640,257.7C639.9,257.7,639.9,257.7,640,257.7z"/>
	<path class="st5" d="M622.6,256.4L622.6,256.4c1,0.1,1.9-0.6,2-1.6c0,0,0-0.1,0-0.1l0.1-1.1c0.1-1-0.6-1.9-1.7-2c0,0-0.1,0-0.1,0
		l0,0c-1-0.1-1.9,0.6-2,1.6c0,0,0,0.1,0,0.1l-0.1,1.1C620.8,255.4,621.6,256.2,622.6,256.4z"/>
	<path class="st4" d="M438.4,462.6l7.8,179.6c0.2,1.8-1.2,3.5-3.1,3.7c-0.1,0-0.1,0-0.2,0l0,0c-1.8-0.1-3.2-1.6-3.2-3.3l-13.6-180.2
		h12.3L438.4,462.6z"/>
	<path class="st4" d="M455.2,441.6l7.4,170.9c0.2,1.8-1.1,3.4-2.9,3.6c-0.1,0-0.1,0-0.2,0l0,0c-1.7-0.1-3-1.4-3.1-3l-12.9-171.4
		L455.2,441.6z"/>
	<path class="st4" d="M315.8,462.8l-24.5,178.2c-0.3,1.9,0.9,3.6,2.8,4c0,0,0,0,0,0l0,0c1.8,0,3.3-1.2,3.5-2.9l30.3-178.2
		L315.8,462.8z"/>
	<path class="st22" d="M479.5,272.1c0,0,8,3.6,1.1,35c-6.9,31.4-19.6,73-17.8,120s-29.7,66.5-81,62.9
		c-51.4-3.6,29.3-146.1,29.3-146.1S468.8,259.3,479.5,272.1z"/>
	<path class="st20" d="M341.7,281.7c1.3-5.8,4.2-15.2,14.8-19.1c10.7-3.8,122.6-2,124.1,11.7c1.5,13.6-27.8,77.2-27.6,122.8
		s8.4,83.3-46.3,90.9c-54.6,7.6-113.1-3.6-107.2-21.9c5.9-18.3,24-42.8,29.5-93C334.5,322.9,336.7,304.2,341.7,281.7z"/>
	<path class="st5" d="M316.3,427.5c0,0-41.1,50.6-42.3,67.4c-1.2,16.8,67.6,16.2,67.7,12.7c0.1-3.4,11.6-23.1,17-23.4
		c3.5-0.3,8.9-0.5,9.8,3.7c1.3,6,0,18.4,0,18.4l59.2,27.3l5.8-24.2c0,0,10-15.8,10-41.7c0-26-7.7-64.2-7.7-64.2
		S323.1,415.1,316.3,427.5z"/>
	<path class="st5" d="M364.9,671.5c0,0-3.6,2.4-4.4,8.3c-0.8,6-4,14.8-6.2,22.1c-2.2,7.3-8.5,21.5-5.3,23.8
		c4.6,3.6,16.7,6.1,30.7,7.3c14,1.2,20.8,0.4,22.9-3.6c2.2-4-2.4-26.8-3.2-35.4c-0.8-8.6,0-17.6-1.6-20.7
		C396.2,670.5,371.4,663.3,364.9,671.5z"/>
	<path class="st5" d="M315.1,663.9c-1.4,2.5-2.5,5.1-3.2,7.8c-1.6,5.2-15.9,26.9-15.8,33.8c0.1,6.9,13.8,7,19,7.3
		c6.3,0.3,22.4-0.9,27.6-4.5c5.3-3.6,5.4-15.9,5.8-19.9c0.8-7.9,0.7-12.7-1.2-24.6c-0.5-3.8-6.5-4.9-9.7-2.6
		C334.4,663.3,317.6,658.7,315.1,663.9z"/>
	<path class="st6" d="M367,655.8c0,0-2.4,17.4-2.7,19.5s3.6,6.8,15,9.1c9.7,2.1,15.5-1.5,16.5-2.8c0.9-1.3,5.4-23.4,6.9-28.5
		C404.1,648.1,370.1,649.8,367,655.8z"/>
	<path class="st6" d="M311.9,652.1c0,0,3.6,12.2,3.6,13.8c0,1.6,6.2,4.9,14.8,4.6c8.6-0.3,15.9-4.9,15.9-7.2
		c0-2.3-2.6-23.8-2.6-23.8S312.7,646,311.9,652.1z"/>
	<path class="st15" d="M362.1,702.4c11.3-2.9,23.4-0.2,32.2,7.3"/>
	<path class="st15" d="M366.4,692.7c0,0,16.3-2.9,26.7,5.4"/>
	<path class="st5" d="M365,678.6c1.8,0.9,4,0.9,5.8,0c3.1-1.6,6.3-4.5,12.7-3.3c7.7,1.5,9.2,9.3,13.3,5.8c0,0,0.1,5.3-10.4,5.8
		S365.2,680.3,365,678.6z"/>
	<path class="st5" d="M315,666.1c0,0,1.5,1.6,3.9-0.7s2.2-4.8,8.8-5.7c4.3-0.5,8,2.5,11.2,5c3.2,2.5,6.5-0.9,7.1-3.8
		c0,0,2.2,7.6-0.8,11.3c-2.2,2.8-10.5,0.8-15.5,0.9c-5,0.1-15.8-2.3-15.8-2.3L315,666.1z"/>
	<path class="st15" d="M305.8,685.6c0,0,12.7-7.7,30.1,2.6"/>
	<path class="st15" d="M311.9,677.6c0,0,11.1-7.7,26.3,2.6"/>
	<path class="st5" d="M384.4,480.3c0,0-16.3,2.3-17.4,42.3s-4.4,104.3-9,113.3s-3,19.6,5.5,23.8s18.3,9.1,30.7,7.8
		c12.4-1.3,18.3-8.3,18.3-22.5s5.3-53.9,13.3-86.2c8.1-32.3,13.5-64.2-3-75.8C406.6,471.4,384.4,480.3,384.4,480.3z"/>
	<path class="st5" d="M287.8,477.1c0,0-24.5,3-10.7,62.8c13.9,59.7,23.2,91.1,21,100.3c-2.2,9.1,4.6,14,12.3,15.8
		c7.7,1.7,22.4,1.5,30.7-3.2c8.4-4.6,9.3-12.1,5.9-26.2s-4.2-70.9-4.6-90.3c-0.4-19.5,4.6-52.6-19.4-62.1
		C299.1,464.5,287.8,477.1,287.8,477.1z"/>
	<ellipse class="st12" cx="303.1" cy="497.6" rx="19.6" ry="18.9"/>
	<ellipse class="st12" cx="399.8" cy="512.2" rx="19.6" ry="18.9"/>
	<path class="st5" d="M444.8,230c0,0,8-2.5,10.5-8.2c2.6-5.7,2.3-22.9-2.4-28.3c-4.7-5.4-17.9-3-26.3-5.4
		c-8.4-2.4-14.2-7.7-29.7-4.8c-15.5,2.9-29.8,16.6-30.5,24c-0.7,7.4,3.8,10.5,2.2,15.2c-1.6,4.8-3.8,9.4,3.8,16.7
		c7.6,7.3,4.6,12.1,10.2,12.1c5.7,0-4.6-17,2.7-31.5C392.7,205.1,440.8,213.6,444.8,230z"/>
	<path class="st6" d="M288.2,317.7c0,0-17.8,23.1-20.9,40.4s6.5,28.6,18.3,30.5c11.9,1.9,51.6-49.1,53.5-59.5
		C341,318.8,293.8,309.6,288.2,317.7z"/>
	<path class="st14" d="M344.9,272.7c0,0-9-2.5-30.7,15.9c-18.2,15.4-32.6,30.1-32.6,30.1s38.3,34.2,43.6,43.1
		c0,0,23.6-26.8,25.6-53.8S348.3,271.6,344.9,272.7z"/>
	<path class="st8" d="M288.2,312.5c0,0,27.6,21.9,42.6,42"/>
	<path class="st5" d="M334.3,283.9c3.4-7.4,10.1-12.8,18.5-13.1c8.1-0.3,20.4-0.1,38.2,1.1c38.3,2.6,67.8,13.4,75.6,18.9
		s-1.8,40-9.8,59.1c-8.1,19.1-16.9,36.4-18.3,43.1c-1.5,6.6,3.9,37.9,1.1,44.2s-32.9,17.4-71.2,15.2c-38.3-2.1-54.2-14.3-55.4-18.8
		c-1.2-4.5,3.6-43.6,5.9-57c2.3-13.4,3.9-42.8,4.2-47C325.4,302.3,330.8,291.6,334.3,283.9z"/>
	<path class="st6" d="M501.5,345.5c-9.6-16.2-42.7,16-41.9,23.2c0,0,5.9,12.2,5.9,13.5s-5.9,34.8-10,53.7
		c-1.2,5.8-4.9,12.3-9.3,18.5c10.4,3.9,21.2,6.9,32.1,9.1c14.3-24.5,30.7-62,33.3-71.3C516.3,374.9,511.1,361.7,501.5,345.5z"/>
	<path class="st19" d="M465.5,382.2c1.8-3.7,4.8-6.6,8.6-8.2"/>
	<path class="st14" d="M466.6,290.7c0,0,10.9,6,21.7,23.8c10.8,17.9,19.1,34.2,19.1,34.2l-47.5,24.4c0,0-13.8-22.1-19.4-32.1
		s-6.2-30.3,1.8-41.7C450,288,462.8,288.2,466.6,290.7z"/>
	<path class="st8" d="M455.5,366.1c0,0,27.6-17.9,48-24.5"/>
	<path class="st6" d="M452.8,443.3c0,0-19,1.9-23.3,4.2c-4.3,2.4-10.8,16.8-10.2,18.1c0.5,1.3,4.6,0,4.6,0s-0.5,2.8,2.7,2.8
		s3.8-1.3,3.8-1.3c-0.3,1.5,0.7,3,2.2,3.3c0.3,0.1,0.7,0.1,1,0c3.8-0.3,11.6-6.9,11.6-6.9s-4.2,7.3-1.6,9s8.1-4.4,8.9-5.6
		c0.8-1.2,22.2,11.5,30.5-11.9C482.9,455.1,467.4,438.5,452.8,443.3z"/>
	<path class="st14" d="M372.8,270c0,0-6.5,0.7-7.8,1.9s-5.4,11.5,0,22.3c5.4,10.7,21,16,36.9,11.1s22.7-19.9,22.1-24.5
		s-3.4-6.1-9.2-7.6C409.1,271.7,372.8,270,372.8,270z"/>
	<path class="st6" d="M380.5,236.8c0,0,0.4,12.2-2.7,22.1c-1.2,3.8-2.8,7.5-4.9,11c-1.1,1.9-1.8,4-2.2,6.2
		c-0.8,5.4-0.4,14.8,9.7,19.3c16.2,7.2,33.2-6,35.5-16.4c0,0,0.9-10.9,3.4-15.2C421.8,259.4,388.3,232.7,380.5,236.8z"/>
	<path class="st21" d="M414.9,282.1c0.5-1,0.8-2,1.1-3c0.1-1.6,0.4-3.3,0.7-4.9c-11-1.8-20.7-7.9-27.1-16.8
		C390.4,270.3,401.7,280.2,414.9,282.1z"/>
	<path class="st6" d="M279,386.5c0,0,6.6,7.3,36,0c29.4-7.3,67.3-27.4,73-29.4c5.7-2,7.8-1.1,13.9-1.1c14.4,0.3,20.4-1.1,22.2-2
		c3.8-1.9,5.5-4.6,4.9-7c-0.7-2.4,1.3-3,1.8-5.2c0.7-4-0.8-4.5-0.4-4.8c0.4-0.3,4.4-1.5,5.3-2.5c2-3,0.4-5,0.4-5
		c3.7-0.9,7.4-1.5,11.2-1.9c6.1-0.5,9.7-2.6,8-4.8c-1.8-2.1-13.6-1.5-21.3-1.5s-10.4,0.1-10.9-0.1c-3-0.9-8.8-2.6-11.6-2.4
		c-2.8,0.3-6.1,2.5-11.6,5.4c-6.3,3.2-12.9,5.7-19.8,7.3c-6.2,1.6-47.9,4.8-73.6,9.5c-3.6,0.7-7,1.3-9.8,2.1
		c-2.8,0.7-5.6,1.6-8.2,2.8C274.1,353.5,261.9,372.9,279,386.5z"/>
	<path class="st19" d="M435.8,329.5c0,0-3.5-0.5-4.7-0.8c-1.1-0.2-2.2-0.3-3.2-0.3"/>
	<path class="st19" d="M430.3,337c0,0-2.4,0.7-3.4,1.1"/>
	<path class="st19" d="M428.9,345.5c-1.2,0.7-2.4,1.3-3.6,1.9"/>
	<path class="st5" d="M387.9,357.1c-10.4-12.1-5.1-26.2-5.1-26.2l-11.6,2.1c-6.6,16,5.1,29.5,5.1,29.5L387.9,357.1z"/>
	<path class="st19" d="M422.7,321.3c0,0-7.3,0.1-8.5,0.7"/>
	<path class="st19" d="M306.2,341.2c-3.6,0.7-7,1.3-9.8,2.1c-2.8,0.7-5.6,1.6-8.2,2.8"/>
	<path class="st20" d="M382.5,345.5c0-3.8-3.1-6.9-7-6.9c-3.9,0-7,3.1-7,6.9c0,3.8,3.1,6.9,7,6.9
		C379.4,352.3,382.4,349.3,382.5,345.5z"/>
	<path class="st6" d="M446.5,207.5c0,0,3,8.7-1.2,21.7c-4.2,13-7,17.9-10.5,28.2c-3.5,10.3-12,19.3-26.4,17.9
		c-15.1-1.6-27-15.1-27.6-31.9s-2.2-43.1,18.2-47.7C419,191.2,443,203,446.5,207.5z"/>
	<path class="st5" d="M433.1,235.6c0,1.5,0,3,0.3,4.5c0.1,0.7,0.3,1.5,0.4,2.1c0.1,0.4,0.1,0.7,0.3,1.1l0.1,0.5l0.1,0.7
		c0.3,1,0.3,2,0,2.9c-0.4,0.9-1,1.7-1.9,2.3c-1.5,0.9-3.3,1.1-5,0.7c1.4-0.5,2.6-1.2,3.8-2.1c0.9-0.8,1.1-2,0.7-3l-0.1-0.4l-0.1-0.7
		c-0.1-0.4-0.1-0.8-0.3-1.2c-0.1-0.8-0.2-1.7-0.1-2.5C431.5,238.6,432.1,237,433.1,235.6z"/>
	<path class="st5" d="M384.2,228.4c0,0,4.4-1.1,7.3-12.6c0,0,0.9-2.6,5.7,0.9c4.7,3.6,12.5,9.4,26.3,3c13.8-6.4,15.5-8.5,17.4-6.2
		c0,0,2,10.1,9,6.9c7-3.2,3.2-21.1-20-26.9c-23.2-5.8-39.6-3.8-47.1,8.9C375.4,215.2,378.2,227.6,384.2,228.4z"/>
	<path class="st5" d="M426.5,224.2c1.1-1.2,1.3-3,0.5-4.5c-1.5-2.3-11.6-3.8-14-1.9s3.6,2.3,6.5,3.6S425.7,225.1,426.5,224.2z"/>
	<path class="st5" d="M439,229.9c0.4-0.9,1.1-1.7,2-2.1c1.5-0.7,4.6,2.4,4,4.4c-0.5,2-2-0.3-3.4-0.5
		C440.4,231.1,438.6,230.7,439,229.9z"/>
	<path class="st5" d="M418.8,231.9c0.4-1-0.1-2.2-1.2-2.6c0,0-0.1,0-0.1,0l0,0c-1.1-0.4-2.3,0.1-2.7,1.2c0,0,0,0.1,0,0.1l-0.3,0.7
		l3.9,1.5L418.8,231.9z"/>
	<path class="st5" d="M439,239.3c0.4-1.1-0.2-2.3-1.3-2.6c-1.1-0.4-2.3,0.2-2.7,1.3l0,0l-0.3,0.7l3.9,1.5L439,239.3z"/>
	<path class="st6" d="M386.6,230.7c0,0-2.3-9-9-8.9c-6.7,0.1-9.8,18.1,5.7,20.9"/>
	<path class="st5" d="M376.5,230c0-0.7,0.2-1.3,0.7-1.9c0.3-0.3,0.8-0.5,1.2-0.5c0.4,0,0.8,0.1,1.2,0.3c0.1,0,0.4,0.3,0.5,0.4
		c0.1,0.1,0.3,0.4,0.4,0.5c0.1,0.1,0.1,0.4,0.3,0.5c0.1,0.1,0.1,0.4,0.1,0.5c0.1,0.6,0.2,1.1,0.1,1.7v3c0,0.4,0.2,0.8,0.4,1.2
		c0.3,0.4,0.7,0.7,1.2,0.9c-0.6,0.3-1.3,0.3-1.9,0c-0.7-0.3-1.2-0.9-1.5-1.6c-0.5-1.1-0.7-2.4-0.7-3.6c0-1.1-0.1-2.3-0.1-2.3
		c-0.2-0.3-0.5-0.4-0.8-0.4C377.3,229.3,376.9,229.7,376.5,230z"/>
	<path class="st5" d="M418.4,258.9c0.5-0.7,1-1.5,1.3-2.3c0.5-1,0.1-2.3-1-2.8c-0.1,0-0.2-0.1-0.3-0.1c-1.9-0.8-3.6-1.8-5.1-3
		c-4.2-3.3-6.1-0.4-5.8,3.3C411.7,254.4,415.3,256.9,418.4,258.9z"/>
	<path class="st23" d="M407.6,253.9c0.3,3.2,2,7,5.5,7.6c2.1,0.2,4.2-0.7,5.3-2.5C415.3,256.9,411.7,254.4,407.6,253.9z"/>
	<path class="st4" d="M138.3,473.2l-19.8,271.6c-0.1,2.2,1.6,4.1,3.9,4.2c0,0,0.1,0,0.1,0l0,0c2.1,0,3.8-1.5,4-3.6l23.9-272.1h-12.1
		V473.2z"/>
	<path class="st4" d="M938.4,473.2l19.8,271.6c0.1,2.2-1.6,4.1-3.9,4.2c0,0-0.1,0-0.1,0l0,0c-2.1,0-3.8-1.5-4-3.6l-23.9-272.1h12.1
		V473.2z"/>
	<polygon class="st20" points="980.6,467.5 96.1,467.5 197.3,427.5 879.3,427.5 	"/>
	<rect x="96.1" y="467.5" class="st4" width="884.6" height="9.9"/>
	<path class="st9" d="M447.8,420.9h56.8c1.5,0,3.1,0.5,4.3,1.3l51.5,33.8c1,0.6,1.2,1.8,0.6,2.8c-0.4,0.6-1,0.9-1.7,0.9h-82.1
		c-1.9,0-3.7-0.9-4.9-2.4l-26.2-33.1c-0.7-0.9-0.6-2.2,0.3-2.9C446.9,421.1,447.3,420.9,447.8,420.9z"/>
	<line class="st24" x1="482.9" y1="449.3" x2="535.9" y2="449.3"/>
	<path class="st5" d="M521.2,439.3l-11.1-8.2c-0.5-0.4-1-0.5-1.6-0.5h-14.4c-0.5,0-0.7,0.5-0.4,0.9l8.4,7.9c0.5,0.5,1.2,0.8,1.9,0.8
		h17C521.4,440.2,521.6,439.7,521.2,439.3z"/>
	<line class="st24" x1="491.2" y1="440.2" x2="476.7" y2="440.2"/>
	<line class="st24" x1="486.5" y1="434.8" x2="473.4" y2="434.8"/>
	<path class="st14" d="M775.6,465.1l-16.2,1.2c-1.4,0.1-2.8,0-4.2-0.4l-73.9-19.9c-1.7-0.5-2.8-2-2.8-3.7l0,0l125.7-3L775.6,465.1z"
		/>
	<path class="st5" d="M757.6,460.6l31.3-81.7c1.1-2.9,4-4.8,7.1-4.8l128.4,2.4c2.2,0,4,1.8,4,4c0,0.5-0.1,1-0.3,1.5l-29.7,71.4
		c-1.1,2.6-3.6,4.4-6.5,4.6l-130.3,8.1c-2.4-0.1-4.3-2-4.2-4.4C757.4,461.4,757.4,461,757.6,460.6z"/>
	<path class="st5" d="M762.1,466.2l-2.7,0.1c-1.4,0.1-2.8,0-4.2-0.4l-73.9-19.9c-1.7-0.5-2.8-2-2.8-3.7l81,19.1L762.1,466.2z"/>
	<path class="st14" d="M866.1,418.3c-1.5,5-6.7,9.1-11.9,9.1s-8.1-4.1-6.6-9.1c1.5-5,6.7-9.1,11.9-9.1S867.6,413.2,866.1,418.3z"/>
	<path class="st25" d="M142,291.9c0,0,13.2-3.6,24.8,16.8c11.6,20.4,17.4,58.3,21,62.1s9.6,6.8,28.7,18.8
		c19.1,12.1,20.2,12.5,36.8,14.4c16.6,2,17.7,7.6,22.8,13.1c5.1,5.6,8.8,9.4,3.9,9.8c-4.9,0.4-10.1-6.5-13.2-4.5
		c-3.3,2.3-7,4.1-10.9,5c-5.7,1.3-3.9,3.6-9.2,3c-5.3-0.5-15.5-0.3-12.3-3c3.2-2.8,0-3.4,0-3.4s-57-7.6-75.5-22.3
		s-23.3-63.5-27-79.6C128.4,306,137.4,291.9,142,291.9z"/>
	<path class="st26" d="M187.8,370.8c-3-0.3-6,0.2-8.8,1.3"/>
	<path class="st5" d="M148.5,227.4c0,0,10-9.3,6.1-21.3s-16-13.2-25.9-10.3s-36.8-2-46.7,12.7c-9.8,14.7-3.6,28-9.8,31.8
		c-6.2,3.8-15,6.6-13.5,16.3c1.5,9.7,27.8,23.7,19.7,34.8c-8.1,11.1-15.8,37,15.5,51.7c31.3,14.7,33.2-20.4,35.2-40.8
		s-4.2-44,4.7-52.7C142.8,240.5,150.2,235.6,148.5,227.4z"/>
	<path class="st5" d="M102.9,287.1c0,0,35.7,0.8,41.9,3.6c6.2,2.8,9,12.2,10.9,19.3c1.9,7.2,16,15.8,18.6,31.5s-11.2,34-11.9,37
		s-0.8,32.6,0.8,38.7c1.6,6.1,4.4,16,4.2,20.4c-0.3,4.4-19.1,13-47.2,11.4c-28-1.6-57.4-15.5-58.4-18.5s8.4-17.4,5.8-47.3
		c-2.6-29.9-17.1-62.1-6.5-79.9C71.9,285.8,97.5,287,102.9,287.1z"/>
	<path class="st25" d="M101.5,261.9c0,0,1.5,15.4,1.2,25.2c0,0,3.9,8.2,16.2,10.6c14.8,3,17.8-5.3,15.8-8.9c0,0-3.5-12.7-3.9-21.5
		C130.5,258.9,102.2,260.7,101.5,261.9z"/>
	<path class="st27" d="M113.7,274.7c5.5,8.5,11.2,11.9,20.9,12.6c-0.5-1.9-1.2-5.2-2-8.7C124.9,279.4,121.2,276.8,113.7,274.7z"/>
	<path class="st25" d="M96.4,287.1c6.1,4.4,11.4,9.8,15.6,15.9c7.7,10.9,17.5,18.9,24.4,18.1c6.9-0.8,10.1-9.7,1.2-31.9
		C137.7,289.2,116.1,285.8,96.4,287.1z"/>
	<path class="st14" d="M223.6,412.4l56.5-3.4c0.7,0,1.5-1.5,1.8-0.9c0.1,0.8,0.1,1.6,0,2.4c0,0.4-0.1,0.9-0.4,1.2l-42.6,42.9
		c-1.8,1.8-4.2,2.6-6.7,2.4l-55.6-5.4c-0.5,0-1-0.3-1.2-0.8c-0.9-1.3-1.6-2.8-2.2-4.2c0-0.4,3.1-0.4,3.5-0.7l43.2-31.9
		C220.9,413,222.2,412.5,223.6,412.4z"/>
	<path class="st5" d="M222.9,409l57.3-2.4c0.9,0,1.7,0.7,1.7,1.6c0,0.4-0.2,0.9-0.5,1.2L237.3,452c-1.8,1.8-4.4,2.6-6.9,2.3
		l-56.2-6.8c-0.9-0.1-1.6-0.9-1.5-1.8c0-0.5,0.3-0.9,0.7-1.1l45.4-34.3C220,409.5,221.4,409,222.9,409z"/>
	<path class="st25" d="M248.2,406.5c0,0-1.5,0.3-1.5,3s1.1,10.2-1.8,10.7c-2.8,0.5-4-2.8-5.4-5.7c-1.3-2.9-5.4-3-8-7.3"/>
	<path class="st25" d="M145,213.2c2.5,7,3.9,14.3,4.3,21.7c0.4,11.7,4.4,18.3,2.2,28.3s-10.4,17.9-20.4,18.3
		c-10,0.4-24.5-8.3-32.5-18.8c-8-10.5-10.4-32.3-5.7-42.9C97.4,209.3,132.7,198.3,145,213.2z"/>
	<path class="st5" d="M149.5,224.6c-3.9,0.2-7.5-1.8-9.4-5.2c0,0-8.8,19.9-22.9,21.2c-9.7,0.9-11.6-3.6-15.6,0
		c-4,3.6,7.7,24.2,4,41.1s-20.9,21.5-33,11.1c-15.2-13.1,1.3-15.6,4.4-34.2s0-32.6,10-43.3s19.8-17.4,35.6-15.9
		S145,203.2,149.5,224.6z"/>
	<path class="st5" d="M107.9,238.1c0,0-0.9,7-0.5,9.3c0.4,2.3-4.2-2.5-8.4,0.5c-2.3,1.7-4.4-9.1,0-12.5
		C103.4,232.1,105.8,234.9,107.9,238.1z"/>
	<path class="st25" d="M105.3,247.5c0,0-5.1-6.5-10.7-2.5c-5.5,4,1.6,16,10,15.1"/>
	<path class="st25" d="M218.7,442.8c0,0,7.7,6.2,10.7,8.3c3,2.1,1.1,4-2.2,4S213.3,446.7,218.7,442.8z"/>
	<path class="st25" d="M65.9,297.8c-3.2,1.5-5.9,4-7.6,7c-5.4,10-7,21.6-4.4,32.7c5,22.4,16.7,56,22,64c5.3,7.9,29.9,23.8,47.3,34.4
		c17.4,10.6,30.7,16.4,34,18.8c3.2,2.4,9.7,8.5,22,9.9c12.3,1.5,16.3-2.9,20.1-2s10.1,5.2,13.6,4.8c3.5-0.4,1.6-3,0.3-4.4
		c-1.3-1.3-9.3-8.3-9.3-8.3c4.1,1.8,8,3.8,11.9,6.1c5.9,3.4,8.8,3.6,10.4,3.4c1.6-0.1,3.5-0.7,3.2-2.1c0.9,0.5,2.1,0.4,3-0.3
		c1.3-1.2,1.8-2.3-1.5-5.8c-3.2-3.6-11.5-13-15.5-17.1c-4-4.1-8.8-4.5-18.7-4s-24-1.6-24.4-1.2c-0.4,0.4-43.3-44.2-56.2-57
		c0,0-10.4-33.3-13.5-47.6C96.1,300.6,80.8,290.9,65.9,297.8z"/>
	<path class="st26" d="M229.4,462.4c0,0,0-1.6-4-4.4s-10.4-8.7-12.4-10.2c-1.5-1.3-3.1-2.4-4.9-3.3"/>
	<path class="st26" d="M203.9,454.9c0,0-3.1-2.6-4.6-2.3"/>
	<path class="st26" d="M116,376.9c-4.2-0.2-8.4,1.4-11.3,4.4"/>
	<path class="st5" d="M144.3,241.9c0.9,1.2,1.8,2.4,2.6,3.4c0.4,0.5,0.8,1,1.3,1.5l0.7,0.7l0.4,0.3c0.1,0.1,0.4,0.3,0.5,0.5
		c0.6,0.8,1,1.8,0.9,2.8c0,0.9-0.3,1.7-0.8,2.4c-0.8,1.4-2.1,2.5-3.6,2.9c0.9-1.1,1.5-2.4,1.9-3.7c0.4-1,0.3-2.1-0.3-2.9
		c0-0.1-0.1-0.1-0.3-0.3c-0.2-0.2-0.3-0.3-0.5-0.4c-0.3-0.3-0.6-0.6-0.8-0.9c-0.5-0.6-0.9-1.3-1.2-2
		C144.6,244.8,144.3,243.4,144.3,241.9z"/>
	<path class="st8" d="M140.1,265.8c-2.7,0.6-5.6-0.3-7.4-2.4"/>
	<path class="st5" d="M130.9,248L130.9,248c1.1-0.2,1.9-1.2,1.8-2.3c0-0.1,0-0.1,0-0.2l-0.3-1.2c-0.2-1.1-1.2-1.9-2.4-1.8
		c-0.1,0-0.1,0-0.2,0l0,0c-1.1,0.2-1.9,1.2-1.8,2.3c0,0.1,0,0.1,0,0.2l0.3,1.2C128.7,247.4,129.8,248.1,130.9,248z"/>
	<path class="st5" d="M147.4,245.4L147.4,245.4c1.1-0.2,1.9-1.2,1.8-2.3c0-0.1,0-0.1,0-0.2l-0.3-1.2c-0.2-1.1-1.2-1.9-2.4-1.8
		c-0.1,0-0.1,0-0.2,0l0,0c-1.1,0.2-1.9,1.2-1.8,2.3c0,0.1,0,0.1,0,0.2l0.3,1.2C145.1,244.8,146.2,245.6,147.4,245.4z"/>
	<path class="st5" d="M129.7,234.2c1,0.1,2-0.7,2-1.7c0-0.1,0-0.3,0-0.4c-0.1-1-0.4-1.9-0.9-2.8c-1.2-1.3-5.9-0.9-9.4,1.7
		c-3.5,2.6-5,6.1-3.2,6.2c1.8,0.1,4.3-2.1,7.1-2.8C126.7,234.1,128.2,234,129.7,234.2z"/>
	<path class="st5" d="M147.4,232.3c-0.4,0.3-0.9,0.2-1.2-0.2c-0.1-0.1-0.1-0.2-0.1-0.3c-0.3-1.1-0.5-2.6-0.1-3
		c0.7-0.8,2.7-0.3,3.1,0.9c0.4,1.2,0.5,1.9,0.1,1.9C148.7,231.5,148.1,231.7,147.4,232.3z"/>
	<path class="st5" d="M96.8,250.9c-0.7-0.7-0.7-1.8-0.1-2.6c0.2-0.3,0.6-0.6,0.9-0.8c0.1,0,0.3-0.1,0.5-0.1c0.3,0,0.6,0,0.9,0.1
		c0.4,0.2,0.7,0.5,0.9,0.9c0.3,0.5,0.6,1,0.8,1.6c0.4,0.9,0.5,1.9,0.8,2.5c0.1,0.3,0.3,0.7,0.5,0.9c0.4,0.3,0.9,0.4,1.3,0.4
		c-0.4,0.4-1,0.7-1.6,0.7c-0.7,0-1.3-0.4-1.8-0.9c-0.7-0.9-1.2-1.8-1.6-2.8c-0.1-0.4-0.2-0.8-0.4-1.2c0-0.1-0.1-0.3,0-0.3l0,0
		c-0.3,0-0.5,0.1-0.7,0.3C97.1,250,96.9,250.4,96.8,250.9z"/>
	<path class="st6" d="M478,168.9h-47.5l-4.9,3c-1.1,0.7-2.6,0.3-3.3-0.8c-0.2-0.3-0.3-0.7-0.3-1.1v-33c0-3.4,2.8-6.1,6.2-6.1
		c0,0,0,0,0,0h49.6c3.4,0,6.2,2.7,6.2,6.1c0,0,0,0,0,0v25.7c0.1,3.3-2.6,6-5.9,6.1C478.1,168.9,478.1,168.9,478,168.9z"/>
	<path class="st8" d="M436.2,156.8l4.7-4.6c2.5-2.5,6.6-2.5,9.1-0.1c0,0,0,0,0.1,0.1c2.5,2.5,6.6,2.5,9.1,0.1c0,0,0,0,0.1-0.1l9-8.9
		"/>
	<polygon class="st5" points="469.8,145.9 471.4,140.2 465.6,141.8 	"/>
	<path class="st14" d="M894.7,322.9l-124.3-14.3c-3.2-0.3-5.5-3.1-5.2-6.2c0-0.3,0.1-0.7,0.2-1l28.7-129c0.9-3.2,3.6-5.5,6.9-6
		L930.7,153c2.5-0.4,4.9,1.2,5.3,3.7c0.1,0.6,0.1,1.2,0,1.8L901.6,318C900.8,321,897.9,323.1,894.7,322.9z"/>
	<path class="st5" d="M889.7,322.9l-125.4-14.4c-3.2-0.3-5.6-3.1-5.3-6.2c0-0.3,0.1-0.6,0.2-0.9l29-130c0.8-3.3,3.6-5.7,7-6
		l130.7-13.5c2.5-0.4,4.9,1.2,5.3,3.7c0.1,0.6,0.1,1.2,0,1.8l-34.8,160.8C895.7,321.1,892.8,323.2,889.7,322.9z"/>
	<path class="st7" d="M843.4,198.2l-47.2,2.3c-1,0.1-1.8-0.7-1.9-1.6c0-0.2,0-0.3,0-0.5l3.8-17.2c0.3-1,1.1-1.7,2.2-1.9l47.6-4
		c0.9-0.1,1.8,0.5,1.9,1.4c0,0.2,0,0.5,0,0.7l-4.2,19.1C845.3,197.4,844.5,198.1,843.4,198.2z"/>
	<path class="st6" d="M781,294.8L781,294.8c-0.9-0.1-1.6-0.8-1.5-1.7c0-0.1,0-0.2,0-0.3l7-32.3c0.2-1.1,1.2-1.8,2.3-1.7l0,0
		c0.9,0,1.6,0.7,1.5,1.6c0,0.1,0,0.3-0.1,0.4l-7,32.5C783.1,294.2,782.1,294.9,781,294.8z"/>
	<path class="st9" d="M797.7,294.4l8.4-38.2c0.2-1.1,1.2-1.8,2.3-1.7h0.3c0.9,0,1.7,0.8,1.7,1.7c0,0.1,0,0.2,0,0.3l-8.4,38.2
		c-0.3,1.1-1.3,1.8-2.4,1.7h-0.3c-0.8,0-1.5-0.7-1.6-1.5C797.7,294.7,797.7,294.6,797.7,294.4z"/>
	<path class="st7" d="M815.9,295.8l9.4-43.6c0.3-1.2,1.3-2,2.6-2l0,0c1,0,1.8,0.8,1.8,1.8c0,0.2,0,0.3-0.1,0.5l-9.4,43.6
		c-0.3,1.2-1.4,2-2.7,2l0,0c-1-0.1-1.7-0.9-1.7-1.9C815.9,296.1,815.9,296,815.9,295.8z"/>
	<path class="st7" d="M883.4,213.6l3.1,6.5c-3.8,4.2-8.4,6.9-12.7,6.9c-8.4,0-12.8-9.9-10.1-22.3c2.7-12.3,11.6-22.8,20.1-23.4
		c4.4-0.4,7.8,1.9,9.8,5.8l-5.9,6.9c-0.9-2.3-3.3-3.8-5.8-3.6c-5.1,0.4-10.5,6.6-12.3,14.2c-1.8,7.6,1.1,13.5,6.2,13.4
		C878.8,217.5,881.5,215.9,883.4,213.6z"/>
	<path class="st9" d="M895,203.2c-1.4,6.1-4.2,11.9-8.4,16.7l-3.1-6.5c2.5-2.8,4.2-6.3,5-9.9c0.8-3.2,0.6-6.6-0.7-9.7l5.9-6.9
		C895.8,191.1,896.3,196.8,895,203.2z"/>
	<path class="st7" d="M847.4,277.8c-2.7,12.3,1.8,22.3,10.1,22.3c4.3,0,8.9-2.6,12.7-6.9l-3.1-6.5c-1.9,2.3-4.6,3.8-7.6,4.2
		c-5.1,0.1-7.8-6-6.2-13.4c0.7-3.2,2.1-6.3,4.2-8.9l-2.8-6.1C851.1,267.1,848.6,272.3,847.4,277.8z"/>
	<path class="st9" d="M865.6,263.5c2.5-0.2,4.9,1.3,5.8,3.6l5.9-6.9c-2-4-5.5-6.2-9.8-5.8c-4.6,0.4-9.2,3.6-12.9,8.2l2.8,6.1
		C859.8,265.8,862.6,263.7,865.6,263.5z"/>
	<path class="st6" d="M878.5,276.6c-1.4,6.1-4.2,11.9-8.4,16.7l-3.1-6.5c2.5-2.8,4.2-6.3,5-9.9c0.8-3.2,0.6-6.6-0.7-9.7l5.9-6.9
		C879.3,264.3,880,270.1,878.5,276.6z"/>
	<line class="st12" x1="792.7" y1="212" x2="825.9" y2="210.8"/>
	<line class="st12" x1="790.9" y1="219.4" x2="838.3" y2="218.9"/>
	<line class="st12" x1="789.4" y1="227.1" x2="837.4" y2="227.1"/>
	<path class="st14" d="M913.4,164.7c0.3-1.1-0.1-1.9-0.9-1.9c-1,0.3-1.7,1.1-1.8,2.1c-0.3,1.1,0.1,1.9,0.9,1.9
		C912.6,166.5,913.3,165.7,913.4,164.7z"/>
	<path class="st14" d="M921.3,164c0.3-1.1-0.3-1.9-0.9-1.9c-1,0.3-1.7,1.1-1.9,2.1c-0.3,1.1,0.3,1.9,0.9,1.9
		C920.4,165.9,921.2,165.1,921.3,164z"/>
	<path class="st5" d="M422.1,457.5v0.4c0,1.3-1.1,2.4-2.4,2.4c0,0,0,0,0,0H305.3c-1.3,0-2.4-1-2.4-2.4c0,0,0,0,0,0l0,0
		c0.1-0.8,0.4-1.6,0.9-2.3l22.1-21.5c1-1,2.4-1.6,3.8-1.6h75.1c1.9,0,3.7,1,4.7,2.6l12.1,20.5C421.8,456.3,422,456.9,422.1,457.5z"
		/>
	<path class="st14" d="M365,451.8c0,0.4-0.8,0.8-1.9,0.8s-1.9-0.4-1.9-0.8c0-0.4,0.8-0.8,1.9-0.8S365,451.4,365,451.8z"/>
	<path class="st7" d="M819.6,575.2c0,0-10.4-21.9,15.6-35.6c26-13.8,62.2-0.1,58.9,4.6c-5,7.8-10.8,15.1-17.1,21.9
		C868.8,575,845.2,588.7,819.6,575.2z"/>
	<path class="st8" d="M889.6,543.3c0,0-57.2-12.6-70.1,31.9c-12.9,44.5-8.9,87.2-8.9,87.2"/>
	<path class="st5" d="M768.1,625.3l9.3,107.7c0,4.1,17,7.3,38,7.3s38-3.3,38-7.3l9.3-107.7H768.1z"/>
	<ellipse class="st7" cx="815.4" cy="625.3" rx="47.2" ry="7"/>
	<path class="st7" d="M803.4,602.9c0,0-15.2-7.4-25.1,9.3c-9.8,16.7-2.6,41.9,4.2,45.6c6.7,3.7,34.8-8.9,34.8-34.2
		C817.3,601.1,803.4,602.9,803.4,602.9z"/>
	<path class="st8" d="M803.4,602.9c0,0-15.2-1.1-19.8,51.4"/>
	<path class="st7" d="M791.8,572.3c0,0-16-24.5-48.1-8.7c-32.1,15.8-31.1,59.2-26.2,61.7C722.5,627.8,797.6,602.1,791.8,572.3z"/>
	<path class="st8" d="M817.3,623.6c0,0-10-34.4-25.5-51.4s-63.6,2.5-72.1,43.5"/>
	<path class="st7" d="M835.2,586.1c0,0-13.6-4.6-19.8,11.9c-6.1,16.2,1.1,53,36.1,64.1c1.9,0.6,3.9,0,5.1-1.5
		c8.8-10.4,13.5-23.6,13.3-37.1C869.9,596.7,854.8,577.2,835.2,586.1z"/>
	<path class="st8" d="M835.2,586.1c0,0,28.3,13.6,17.9,71"/>
	<path class="st7" d="M548.4,408.8c0,0,0.5,16.7,25.1,18.3c24.5,1.6,72-3.7,81.3-6.2c9.3-2.5,8.8-17.2,2.8-21.3
		c-5.9-4.1-41.5-6-59.7-8.6c-4.2-0.7-9-1.5-14-1.9c-4.3-0.4-8.5-0.6-12.8-0.5C558.8,389.1,548.5,393.7,548.4,408.8z"/>
	<path class="st8" d="M548.1,404.2c0,0,0-3.4,5.3-2.5c11.5,2.1,21.2,26.4,9.4,23.3"/>
	<path class="st8" d="M597.8,391c-4.2-0.7-9-1.5-14-1.9c-4.3-0.4-8.5-0.6-12.8-0.5"/>
	<path class="st7" d="M718.2,313.6c4.4,1.5,7.7,4.9,13.3,21.7c7.4,22,16.9,68.6,12,81.2c-4.9,12.6-14.6,19.1-47.2,20.5
		S632,436,627.8,436c-4.2,0-11.2-15.1-6.7-25c0,0,27.6-6.6,43.3-10.7c15.6-4.1,32.9-8.5,40-9.3c0,0-11.6-28-15.4-37.8
		c-3.8-9.8-0.7-26.5,8.2-34C706.2,311.6,714.4,312.4,718.2,313.6z"/>
	<path class="st8" d="M704.3,391c0,0,13.3-2.6,21.3,0"/>
	<path class="st8" d="M744.9,408.8c0,0-2.8-6.6-14.3,0.8c-9,5.8-11.7,23.3-1.9,22.3"/>
	<path class="st6" d="M623.8,411.2c0,0-7.1,0.7-14.4,0.7c-7.3,0-17.1,1.2-19.4,2.3c-2.3,1.1-25.5,23.8-24.9,26.9s4.9,1.1,8.6-1.5
		c3.8-2.5,10.8-9.4,12.3-10.3c-1.5,3.4-2.7,7-3.6,10.6c-1.8,6.4-3.5,12.7-1.8,13.8c2.3,1.3,4.4-0.9,5.1-2.3c0,0-0.1,3.3,2.6,3.4
		c2.7,0.1,5.3-4.9,7.4-9.1c2-3.4,4.3-6.7,6.9-9.8c0,0-2.2,6.8-3,10.5c-0.8,3.7-1.3,8.1,0.7,8.5c3.1,0.7,5.9-8.3,7.7-11.8
		c1.8-3.4,8.6-1.2,13.6-4.2c2.4-1.6,5.1-3,7.8-4c0,0,3.4-3.3,3.4-10.5S626.6,411,623.8,411.2z"/>
	<path class="st19" d="M585.4,451.5c0,0,6.5-18.5,9.2-22.1c2.7-3.6,3.6-3.8,4.4-4.4"/>
	<path class="st19" d="M585.6,429.4c0,0,1.1-2.1,2.8-5.3c0.8-1.2,1.8-2.3,3-3.2"/>
	<path class="st19" d="M602.2,435.9c0,0,1.9-4.5,3.8-5"/>
	<path class="st6" d="M645.2,397.7c3.5-1.2,7-2.5,10.4-4c5-2.3,7-3.2,10.9-3.4c3.9-0.3,16.2-0.4,17.9,0.7c1.8,1.1,4,6.1,5.3,8.6
		c1.2,2.5-2.7,12.5-2.7,12.5s1.8,8.7-0.4,9.7c-1.3,0.5-2.6,0.3-4.3-4.4c0,0,1.2,4-1.2,4.2c-2.4,0.3-5.1-6.6-6.9-9.7
		c-1.5-2.4-3.2-4.7-5.1-6.9c0,0,1.5,4.8,1.8,6.4s1.3,5.7,0.7,7.3c-0.7,1.6-3.1-0.5-5.5-6s-3.2-7.3-4.7-7.2
		c-8.4,0.8-7.8-1.1-11.9-1.3l-8.9,2.3C640.4,406.3,639.4,401,645.2,397.7z"/>
	<path class="st19" d="M682.3,417.2c0,0-2.7-8.6-3.6-11.3c-1.2-2.5-2.5-5-4-7.3"/>
	<path class="st19" d="M687,411.9c0,0-1.6-9.3-2.3-11.5c-0.5-1.4-1.1-2.8-1.8-4.1"/>
	<path class="st19" d="M669,404.9c0,0-0.8-2.6-1.2-3.4"/>
</g>
</svg>
