<svg id="Capa_1" enable-background="new 0 0 512 512" height="512" viewBox="0 0 512 512" width="512" xmlns="http://www.w3.org/2000/svg"><g><circle cx="170.667" cy="273.446" fill="#fcd0a2" r="46.779"/><path d="m256 397.333c0-42.586-34.523-77.108-77.108-77.108h-16.45c-42.586 0-77.108 34.523-77.108 77.108l-.333 61 85.667 24.333 85.332-21.333z" fill="#e64d2e"/><circle cx="341.333" cy="273.446" fill="#873f2e" r="46.779"/><path d="m426.667 397.333c0-42.586-34.523-77.108-77.108-77.108h-16.45c-42.586 0-77.108 34.523-77.108 77.108v49l85.333 36.333 85.666-38.333z" fill="#5ab267"/><circle cx="85.333" cy="358.779" fill="#a34f3e" r="46.779"/><path d="m170.667 482.667c0-42.586-34.523-77.108-77.108-77.108h-16.45c-42.586-.001-77.109 34.522-77.109 77.108z" fill="#ffe470"/><circle cx="426.667" cy="358.779" fill="#ffba84" r="46.779"/><path d="m512 482.667c0-42.586-34.523-77.108-77.108-77.108h-16.45c-42.586 0-77.108 34.523-77.108 77.108z" fill="#b33c24"/><path d="m46.542 85.291h30v68h-30z" fill="#ffe470" transform="matrix(.707 -.707 .707 .707 -66.327 78.456)"/><path d="m416.458 104.292h68v30h-68z" fill="#ffb64c" transform="matrix(.707 -.707 .707 .707 47.584 353.462)"/><path d="m170 29.333h30v68h-30z" fill="#ffe470"/><path d="m312 29.333h30v68h-30z" fill="#ffb64c"/><path d="m209.221 358.779c0 25.835 20.944 46.779 46.779 46.779l4-43.225-4-50.333c-25.835 0-46.779 20.944-46.779 46.779z" fill="#a34f3e"/><path d="m302.779 358.779c0-25.835-20.944-46.779-46.779-46.779v93.558c25.835 0 46.779-20.943 46.779-46.779z" fill="#873f2e"/><path d="m247.775 405.558c-42.586 0-77.108 34.523-77.108 77.108h85.333l10-36.333-10-40.775z" fill="#6aa9ff"/><path d="m341.333 482.667c0-42.586-34.523-77.108-77.108-77.108h-8.225v77.108z" fill="#2682ff"/></g></svg>