<svg height="496pt" viewBox="0 0 496 496" width="496pt" xmlns="http://www.w3.org/2000/svg"><g fill="#f0bc5e"><path d="m240 103.632812c0 5.222657-2.617188 10.101563-6.960938 13.007813l-4.101562 2.734375c-8.082031 5.386719-12.9375 14.457031-12.9375 24.175781 0 10.210938 5.351562 19.664063 14.105469 24.914063l25.894531 15.535156 2.558594 1.710938c13.425781-18.472657 21.441406-41.125 21.441406-65.710938 0-11.128906-1.679688-21.855469-4.695312-32h-19.671876c-8.632812 0-15.632812 7-15.632812 15.632812zm0 0"/><path d="m86.113281 120c10.957031 0 20.984375-6.191406 25.886719-16s14.929688-16 25.886719-16h7.417969c8.121093 0 14.695312-6.566406 14.695312-14.6875v-.503906c0-13.730469 11.070312-24.808594 24.71875-24.808594 8.441406 0 15.28125-6.839844 15.28125-15.28125v-20.023438c-10.144531-3.015624-20.871094-4.695312-32-4.695312-61.855469 0-112 50.144531-112 112zm0 0"/><path d="m168 232c8.246094 0 16.265625-.953125 24-2.640625v-8.710937c0-7.550782-4.832031-14.265626-12-16.648438s-12-9.097656-12-16.648438v-7.222656c0-7.871094-2.550781-15.527344-7.273438-21.824218-9.871093-13.160157-27.335937-18.058594-42.605468-11.945313l-7.617188 3.046875c-4.296875 1.714844-8.878906 2.59375-13.511718 2.59375h-36.296876c13.777344 46.246094 56.578126 80 107.304688 80zm0 0"/><path d="m416 240h-16c-13.230469 0-24 10.769531-24 24v16h64v-16c0-13.230469-10.769531-24-24-24zm0 0"/><path d="m408 448c-18.257812 0-34.105469 12.542969-38.617188 30.046875 11.449219 6.328125 24.609376 9.953125 38.617188 9.953125s27.167969-3.625 38.617188-9.953125c-4.511719-17.496094-20.371094-30.046875-38.617188-30.046875zm0 0"/></g><path d="m89.632812 300.023438-17.632812-26.449219-17.632812 26.449219-6.445313-45.160157-15.84375 2.273438 8.984375 62.863281h19.21875l11.71875-17.574219 11.71875 17.574219h19.21875l8.984375-62.863281-15.84375-2.273438zm0 0"/><path d="m185.632812 300.023438-17.632812-26.449219-17.632812 26.449219-6.445313-45.160157-15.84375 2.273438 8.984375 62.863281h19.21875l11.71875-17.574219 11.71875 17.574219h19.21875l8.984375-62.863281-15.84375-2.273438zm0 0"/><path d="m281.632812 300.023438-17.632812-26.449219-17.632812 26.449219-6.445313-45.160157-15.84375 2.273438 8.984375 62.863281h19.21875l11.71875-17.574219 11.71875 17.574219h19.21875l8.984375-62.863281-15.84375-2.273438zm0 0"/><path d="m424 272h-32c-22.609375 0-42.792969 10.496094-56 26.839844v-50.839844c0-13.230469-10.769531-24-24-24h-84.382812c33.832031-19.472656 57.246093-54.910156 59.984374-96h171.78125c11.371094 0 20.617188 9.246094 20.617188 20.625 0 8.488281-5.089844 15.992188-12.960938 19.144531l-44.015624 17.605469c-13.984376 5.59375-23.023438 18.9375-23.023438 34v20.625h16v-20.625c0-8.488281 5.089844-15.992188 12.960938-19.144531l44.015624-17.605469c13.984376-5.59375 23.023438-18.9375 23.023438-34 0-20.191406-16.433594-36.625-36.625-36.625h-171.78125c-4.144531-62.441406-56.121094-112-119.59375-112-66.167969 0-120 53.832031-120 120 0 44.464844 24.359375 83.273438 60.382812 104h-84.382812c-13.230469 0-24 10.769531-24 24v80c0 13.230469 10.769531 24 24 24h288c2.816406 0 5.488281-.574219 8-1.472656v57.472656c0 48.519531 39.480469 88 88 88s88-39.480469 88-88v-64c0-39.703125-32.296875-72-72-72zm-8 72v32c0 4.414062-3.585938 8-8 8s-8-3.585938-8-8v-32c0-4.414062 3.585938-8 8-8s8 3.585938 8 8zm-24-56h8v33.472656c-9.289062 3.3125-16 12.113282-16 22.527344v8h-48v-8c0-30.871094 25.128906-56 56-56zm-328-168c0-57.34375 46.65625-104 104-104s104 46.65625 104 104-46.65625 104-104 104-104-46.65625-104-104zm248 216h-288c-4.414062 0-8-3.585938-8-8v-80c0-4.414062 3.585938-8 8-8h288c4.414062 0 8 3.585938 8 8v80c0 4.414062-3.585938 8-8 8zm96 144c-39.703125 0-72-32.296875-72-72v-40h48v8c0 13.230469 10.769531 24 24 24s24-10.769531 24-24v-8h48v40c0 39.703125-32.296875 72-72 72zm72-128h-48v-8c0-10.414062-6.710938-19.214844-16-22.527344v-33.472656h8c30.871094 0 56 25.128906 56 56zm0 0"/></svg>